<svg width="14.0274" height="8.02637" viewBox="0 0 14.0274 8.02637" fill="none" xmlns="http://www.w3.org/2000/svg">
<path id="Union" d="M7.01463 0C9.91227 0.000159419 12.4617 1.47694 13.9365 3.70996C14.0577 3.89364 14.0576 4.13173 13.9365 4.31543C12.5078 6.47958 10.0703 7.93377 7.28416 8.02246L7.01366 8.02637C4.11531 8.02628 1.56548 6.54933 0.0908035 4.31543C-0.0302211 4.13175 -0.0303146 3.89359 0.0908035 3.70996C1.56565 1.47633 4.11674 5.96306e-05 7.01463 0ZM5.15428 1.34277C3.5521 1.76746 2.17199 2.72506 1.22166 4.0127C2.17204 5.30085 3.5521 6.25788 5.15428 6.68262C4.35935 6.08294 3.83983 5.11189 3.83983 4.0127C3.84003 2.91355 4.35925 1.94236 5.15428 1.34277ZM8.87401 1.34277C9.66931 1.94235 10.1883 2.91346 10.1885 4.0127L10.1846 4.18262C10.1344 5.21154 9.62848 6.11304 8.87498 6.68164C10.4759 6.25655 11.8547 5.30007 12.8047 4.0127C11.8543 2.72541 10.4753 1.76754 8.87401 1.34277ZM7.01366 1.8125C5.90846 1.81294 4.93976 2.75762 4.93944 4.0127C4.93944 5.26809 5.90827 6.21245 7.01366 6.21289C8.11936 6.21289 9.08885 5.26839 9.08885 4.0127C9.08852 2.75732 8.11918 1.8125 7.01366 1.8125Z" fill="var(--fill-0, #1B1F3B)"/>
</svg>
