<svg width="15" height="15" viewBox="0 0 15 15" fill="none" xmlns="http://www.w3.org/2000/svg">
<path id="Union" d="M7.5 0C11.6421 0 15 3.35786 15 7.5C15 11.6421 11.6421 15 7.5 15C3.35786 15 0 11.6421 0 7.5C0 3.35786 3.35786 0 7.5 0ZM7.5 1.09961C3.96538 1.09961 1.09961 3.96538 1.09961 7.5C1.09961 11.0346 3.96538 13.9004 7.5 13.9004C11.0346 13.9004 13.9004 11.0346 13.9004 7.5C13.9004 3.96538 11.0346 1.09961 7.5 1.09961ZM11.6709 5.38281L6.7959 10.1777C6.56114 10.4084 6.18408 10.4073 5.95117 10.1748L3.70117 7.9248L4.125 7.5L4.54883 7.07617L6.37793 8.90527L10.8291 4.52734L11.6709 5.38281Z" fill="var(--fill-0, #2C50E6)"/>
</svg>
