<svg width="10.5" height="11.666" viewBox="0 0 10.5 11.666" fill="none" xmlns="http://www.w3.org/2000/svg">
<path id="Union" d="M7.5 0C9.1567 0.000175887 10.5 1.34325 10.5 3V8.33301C10.4998 8.88503 10.052 9.33283 9.5 9.33301H7.58301V10.666C7.58301 11.2183 7.13529 11.666 6.58301 11.666H1C0.447716 11.666 0 11.2183 0 10.666V3.33301C0 2.78072 0.447715 2.33301 1 2.33301H2.91699V1C2.91699 0.447715 3.36471 4.60181e-09 3.91699 0H7.5ZM1.2002 10.4668H6.38379V5.33301C6.38379 4.3389 5.57712 3.5332 4.58301 3.5332H1.2002V10.4668ZM4.11719 2.33301H4.58301C6.23986 2.33301 7.58301 3.67615 7.58301 5.33301V8.13379H9.30078V3C9.30078 2.006 8.49396 1.20037 7.5 1.2002H4.11719V2.33301Z" fill="var(--fill-0, #A5ACBD)"/>
</svg>
