<svg width="10.5076" height="10.5069" viewBox="0 0 10.5076 10.5069" fill="none" xmlns="http://www.w3.org/2000/svg">
<path id="Union" d="M3.46839 4.616L1.70178 6.3826C1.03296 7.05161 1.03283 8.13653 1.70178 8.80546C2.37075 9.47403 3.45571 9.47409 4.12464 8.80546L5.89026 7.03885L6.73889 7.88749L4.97327 9.65409L4.86389 9.7576C3.72043 10.79 1.95505 10.7556 0.853152 9.65409C-0.284442 8.51654 -0.284326 6.67159 0.853152 5.53397L2.61975 3.76737L3.46839 4.616ZM7.29456 3.21171L7.71936 3.63553L3.63538 7.71952L3.21155 7.29471L2.78772 6.87089L6.87073 2.78788L7.29456 3.21171ZM5.64319 0.749792C6.78675 -0.283384 8.55281 -0.248748 9.65491 0.853308L9.75843 0.961706C10.7577 2.06837 10.7572 3.75766 9.75745 4.86405L9.65491 4.97245L7.88733 6.73905L7.0387 5.89042L8.8053 4.12382C9.47411 3.45493 9.47395 2.37092 8.8053 1.70194C8.1363 1.03312 7.0524 1.03309 6.38343 1.70194L4.61682 3.46757L3.76819 2.61893L5.53479 0.853308L5.64319 0.749792Z" fill="var(--fill-0, #A5ACBD)"/>
</svg>
