<svg width="17.6704" height="17.9853" viewBox="0 0 17.6704 17.9853" fill="none" xmlns="http://www.w3.org/2000/svg">
<path id="Subtract" d="M12.9923 0C14.2026 0.134144 15.3328 0.684989 16.1856 1.56348C18.1864 3.62499 18.1621 6.91089 16.131 8.94238L15.8341 9.24023L12.3966 12.6768L8.55576 16.5176C6.58942 18.4837 3.3979 18.4731 1.44443 16.4941C-0.495886 14.5278 -0.479255 11.362 1.48154 9.41602L7.11338 3.82715C8.23744 2.71197 10.0522 2.71551 11.172 3.83496C12.2948 4.95776 12.2946 6.77842 11.172 7.90137L5.26475 13.8086C4.97186 14.1014 4.49708 14.1015 4.2042 13.8086C3.91157 13.5157 3.91143 13.0409 4.2042 12.748L10.1114 6.84082C10.6483 6.30368 10.6485 5.43253 10.1114 4.89551C9.57576 4.36018 8.70763 4.35913 8.17002 4.89258L2.53818 10.4805C1.16402 11.8441 1.15294 14.0626 2.51279 15.4404C3.88162 16.827 6.11737 16.8346 7.49522 15.457L11.336 11.6162L14.7726 8.17871L15.0704 7.88184C16.522 6.42995 16.5394 4.08171 15.1095 2.6084C14.5389 2.02063 13.7946 1.63871 12.9923 1.51367V0Z" fill="var(--fill-0, #2C50E6)"/>
</svg>
