<svg width="9.33301" height="13.333" viewBox="0 0 9.33301 13.333" fill="none" xmlns="http://www.w3.org/2000/svg">
<path id="Union" d="M7.33301 0C8.43747 0 9.33283 0.89558 9.33301 2V11.333C9.33301 12.4376 8.43758 13.333 7.33301 13.333H2L1.7959 13.3232C0.787361 13.2208 0 12.3686 0 11.333V2C0.000175687 0.895689 0.895689 0.000176251 2 0H7.33301ZM2 1.2002C1.55843 1.20037 1.20037 1.55843 1.2002 2V11.333C1.2002 11.7747 1.55832 12.1336 2 12.1338H7.33301C7.77484 12.1338 8.13379 11.7748 8.13379 11.333V2C8.13361 1.55832 7.77473 1.2002 7.33301 1.2002H2ZM7.42676 8.00098H6.22754V5.33398H7.42676V8.00098Z" fill="var(--fill-0, #788090)"/>
</svg>
