<svg width="16" height="18.0996" viewBox="0 0 16 18.0996" fill="none" xmlns="http://www.w3.org/2000/svg">
<path id="Union" d="M9.28418 0C10.6415 8.63963e-06 11.7956 0.9905 12.002 2.33203L12.1045 3H16V4.5H14.8906L14.0488 15.332L14.0117 15.6211C13.7792 16.9458 12.6865 17.9572 11.3477 18.0859L11.0576 18.0996H4.94238C3.37576 18.0996 2.07265 16.8939 1.95117 15.332L1.10938 4.5H0V3H3.89551L3.99805 2.33203C4.20444 0.9905 5.35851 8.55254e-06 6.71582 0H9.28418ZM3.44727 15.2158C3.50801 15.9968 4.15908 16.5996 4.94238 16.5996H11.0576C11.8409 16.5996 12.492 15.9968 12.5527 15.2158L13.3789 4.59961H2.62109L3.44727 15.2158ZM6.71582 1.5C6.09899 1.50001 5.57443 1.94997 5.48047 2.55957L5.41309 3H10.5869L10.5195 2.55957C10.4256 1.94997 9.90101 1.50001 9.28418 1.5H6.71582Z" fill="var(--fill-0, #1B1F3B)"/>
</svg>
