<svg width="20" height="20" viewBox="0 0 20 20" fill="none" xmlns="http://www.w3.org/2000/svg">
<path id="Union" d="M10 0C15.5228 0 20 4.47715 20 10C20 15.5228 15.5228 20 10 20C4.47715 20 0 15.5228 0 10C0 4.47715 4.47715 0 10 0ZM10 1.5C5.30558 1.5 1.5 5.30558 1.5 10C1.5 14.6944 5.30558 18.5 10 18.5C14.6944 18.5 18.5 14.6944 18.5 10C18.5 5.30558 14.6944 1.5 10 1.5ZM15.5605 7.17773L9.06055 13.5713C8.74742 13.8789 8.24507 13.8768 7.93457 13.5664L4.93457 10.5664L6.06543 9.43555L8.50391 11.874L14.4395 6.03711L15.5605 7.17773Z" fill="var(--fill-0, #1B1F3B)"/>
</svg>
