<svg width="18" height="8" viewBox="0 0 18 8" fill="none" xmlns="http://www.w3.org/2000/svg">
<path id="Union" d="M4 0C6.20914 0 8 1.79086 8 4C8 6.20914 6.20914 8 4 8C1.79086 8 0 6.20914 0 4C0 1.79086 1.79086 0 4 0ZM14 0C16.2091 0 18 1.79086 18 4C18 6.20914 16.2091 8 14 8C11.7909 8 10 6.20914 10 4C10 1.79086 11.7909 0 14 0ZM4 1.5C2.61929 1.5 1.5 2.61929 1.5 4C1.5 5.38071 2.61929 6.5 4 6.5C5.38071 6.5 6.5 5.38071 6.5 4C6.5 2.61929 5.38071 1.5 4 1.5ZM14 1.5C12.6193 1.5 11.5 2.61929 11.5 4C11.5 5.38071 12.6193 6.5 14 6.5C15.3807 6.5 16.5 5.38071 16.5 4C16.5 2.61929 15.3807 1.5 14 1.5Z" fill="var(--fill-0, #1B1F3B)"/>
</svg>
