<svg width="21.9967" height="12.4906" viewBox="0 0 21.9967 12.4906" fill="none" xmlns="http://www.w3.org/2000/svg">
<path id="Vector" d="M21.8201 11.1895C21.5248 10.6581 19.9194 8.94208 19.5739 8.61293C19.1034 8.16481 18.1675 7.51315 18.485 6.74607C18.5766 6.50943 18.9207 6.00968 19.5164 5.24614C19.8298 4.84148 20.078 4.51716 20.2613 4.27282C21.5832 2.51687 22.032 1.18967 21.9211 0.904643C21.8102 0.619614 21.4482 0.574419 20.9194 0.574419L17.5229 0.5972C17.0674 0.5972 16.9036 0.764441 16.8011 1.02107C16.4417 1.94481 16.0332 2.80365 15.5747 3.59756C15.2919 4.07096 15.0323 4.48123 14.7952 4.82861C14.5584 5.17587 14.3598 5.43172 14.1994 5.59572C13.6574 6.14996 13.0095 6.34633 12.8814 5.34372C12.8586 5.16419 12.8451 5.00978 12.8413 4.87995C12.8377 4.75028 12.8394 4.56686 12.8471 4.33022C12.8551 4.09346 12.8586 3.93327 12.8586 3.84928C12.8586 3.55913 12.8643 3.24424 12.8757 2.90452C12.8872 2.5648 12.8966 2.29563 12.9044 2.09734C12.9122 1.89884 12.9158 1.68883 12.9158 1.46743C12.9158 1.24604 12.9023 1.07241 12.8757 0.946385C12.8493 0.820524 12.8089 0.698354 12.7556 0.579914C12.702 0.461594 12.6236 0.370066 12.5207 0.30509C12.4176 0.240195 12.2894 0.188695 12.1368 0.150432C11.7318 0.0588642 11.2161 0.00933019 10.5895 0.00162936C9.16848 -0.0136119 8.2554 0.078076 7.85047 0.276573C7.69003 0.36044 7.54484 0.47503 7.41502 0.619982C7.27746 0.787996 7.25828 0.879685 7.35758 0.894766C8.10626 1.00683 8.41718 1.37426 8.56103 2.05141C8.78137 3.0902 8.71758 4.20387 8.55525 5.24618C8.46339 5.83605 8.16895 6.45403 7.50658 5.99043C7.35385 5.8835 7.19534 5.73662 7.03104 5.54956C6.86675 5.36245 6.68146 5.10098 6.4751 4.76512C5.76992 3.61649 5.15434 2.37636 4.65304 1.1235C4.52785 0.794772 4.17969 0.550995 3.87375 0.550995L0.733607 0.573777C0.412724 0.573777 0.195002 0.646413 0.0803612 0.791486L0.0344806 0.860111C0.0115605 0.898335 0 0.95938 0 1.04341C0 1.12739 0.0229202 1.23047 0.0688007 1.35252C0.527205 2.42904 1.02571 3.46724 1.56431 4.46731C2.10292 5.46738 2.57096 6.27295 2.96815 6.88333C3.36542 7.49414 3.77035 8.07062 4.18296 8.61248C4.59556 9.15455 4.86868 9.50193 5.0023 9.65454C5.13609 9.80744 5.24118 9.92174 5.31757 9.99807L5.60413 10.2729C5.78749 10.4561 6.05675 10.6756 6.41204 10.9313C6.7674 11.1871 7.16082 11.439 7.59249 11.6873C8.02424 11.9352 8.52651 12.1375 9.0996 12.294C9.6726 12.4506 10.2303 12.5135 10.7728 12.4832H12.0908C12.3581 12.4601 12.5606 12.3761 12.6982 12.2312L12.7438 12.1738C12.7745 12.1282 12.8032 12.0574 12.8297 11.9621C12.8565 11.8667 12.8698 11.7616 12.8698 11.6473C12.862 11.319 12.887 11.0232 12.9442 10.7599C13.0013 10.4966 13.0664 10.2981 13.1392 10.1644C13.4111 9.66553 13.799 9.42201 14.3197 9.79825C14.5681 9.97766 14.801 10.1992 15.0189 10.4624C15.2367 10.726 15.4983 11.0216 15.8039 11.3498C16.2528 11.8319 16.8882 12.4722 17.6005 12.4722C18.277 12.4722 19.9109 12.5008 21.0067 12.4837C21.5876 12.4837 21.908 12.254 21.9694 12.0255C22.0417 11.7559 21.9631 11.4258 21.8201 11.1895Z" fill="var(--fill-0, #A5ACBD)"/>
</svg>
