<svg width="21.9599" height="15.9448" viewBox="0 0 21.9599 15.9448" fill="none" xmlns="http://www.w3.org/2000/svg">
<path id="Union" d="M6.87191 0.861221C10.2236 -1.12166 13.5293 1.00419 16.1834 0.546767C16.2059 0.542903 16.2285 0.539767 16.2508 0.536025C16.2642 0.533785 16.2775 0.531386 16.2909 0.529189C17.1735 0.383844 17.9881 0.336232 18.7088 0.386611C18.7402 0.388806 18.7715 0.389898 18.8026 0.392471C18.89 0.39972 18.9759 0.409553 19.0604 0.419814C19.1004 0.424676 19.1401 0.4299 19.1795 0.435439C19.2551 0.446066 19.3292 0.458443 19.4022 0.471572C19.4489 0.479963 19.4952 0.487546 19.5409 0.496963C19.6079 0.510802 19.6734 0.5268 19.7381 0.542861C19.7849 0.554481 19.8312 0.566208 19.8768 0.578994C19.9437 0.597767 20.009 0.618246 20.0731 0.639541C20.1087 0.651375 20.1438 0.664034 20.1786 0.67665C20.2423 0.699763 20.3043 0.72415 20.3651 0.749892C20.4049 0.766755 20.4438 0.784631 20.4823 0.802627C20.5469 0.83284 20.6108 0.861985 20.6717 0.8954C20.675 0.897226 20.6782 0.899424 20.6815 0.90126C20.9306 1.03919 21.1475 1.20387 21.3289 1.39638C21.3386 1.40661 21.3478 1.41724 21.3573 1.42763C21.3804 1.4531 21.4037 1.47837 21.4256 1.50478C21.4595 1.54552 21.4914 1.58777 21.5223 1.63075C21.5701 1.69733 21.6155 1.76582 21.6561 1.83778C21.6674 1.85789 21.6776 1.8789 21.6883 1.89931L21.7196 1.95888C21.7275 1.97517 21.7345 1.9922 21.742 2.00868C21.8048 2.14619 21.8538 2.28987 21.8895 2.43935C21.8919 2.44947 21.895 2.45944 21.8973 2.46962C21.9107 2.52914 21.9193 2.58999 21.9286 2.65126C21.9372 2.70821 21.9439 2.76571 21.9491 2.82411C21.9524 2.8629 21.955 2.90189 21.9569 2.9413C21.9594 2.99515 21.9601 3.0494 21.9598 3.10438C21.9595 3.14674 21.9588 3.18931 21.9569 3.23231C21.9541 3.29264 21.9492 3.35337 21.9432 3.41493C21.9398 3.44988 21.9369 3.48507 21.9325 3.5204C21.924 3.58749 21.9134 3.6551 21.9012 3.72353C21.8948 3.75948 21.8882 3.79562 21.8807 3.83192C21.8649 3.90902 21.8464 3.98669 21.826 4.06532C21.82 4.08838 21.8138 4.11147 21.8075 4.13466C21.7855 4.21445 21.7607 4.29463 21.7342 4.37587C21.7228 4.41077 21.7123 4.44618 21.7 4.48134C21.6733 4.55834 21.6438 4.63558 21.6131 4.71376C21.6019 4.74219 21.5916 4.77112 21.5799 4.7997C21.5451 4.88473 21.5079 4.97026 21.4686 5.05653C21.4573 5.08121 21.446 5.10598 21.4344 5.13075C21.3906 5.22425 21.3438 5.31818 21.2948 5.41298C21.2833 5.43514 21.2714 5.45715 21.2596 5.47938C21.2061 5.58062 21.1499 5.68251 21.0907 5.78505C21.0813 5.8013 21.0719 5.8176 21.0623 5.83388C20.8624 6.17541 20.6317 6.52369 20.3709 6.87587C20.3585 6.89268 20.3464 6.90982 20.3338 6.92665C18.8658 8.89062 16.4896 10.9756 13.5487 12.7157L12.9959 13.0341C11.7106 13.7579 10.4299 14.3507 9.20199 14.8095C9.19185 14.8133 9.18185 14.8174 9.17172 14.8212C5.84831 16.0578 2.91319 16.2985 1.29965 15.4198C1.28113 15.4097 1.26313 15.3989 1.24496 15.3886C1.18126 15.3522 1.11972 15.3143 1.06039 15.2743C1.03978 15.2604 1.01992 15.2457 0.999844 15.2313C0.945237 15.1923 0.892189 15.1526 0.841641 15.1102C0.798364 15.0741 0.7559 15.0375 0.715665 14.9989C0.701021 14.9849 0.686931 14.9703 0.672696 14.9559C0.628717 14.9116 0.586736 14.8657 0.546719 14.8183C0.532091 14.8009 0.51784 14.7833 0.503751 14.7655C0.463453 14.7147 0.42532 14.6624 0.389493 14.6083C0.385015 14.6015 0.379251 14.5956 0.374844 14.5888L0.305508 14.4735C0.161111 14.2172 0.0708549 13.9358 0.0281647 13.6347C-0.0835823 12.8494 0.140048 11.926 0.648282 10.9325C0.664439 10.9009 0.679404 10.8685 0.696133 10.8368C0.869138 10.5088 1.07333 10.1739 1.30551 9.83388C1.32316 9.80803 1.34026 9.78165 1.35824 9.75575C1.44796 9.62651 1.54167 9.49653 1.63949 9.3661L1.94906 8.96864C3.66286 6.84167 3.52013 2.84444 6.87191 0.861221ZM19.3924 2.01845C18.7913 1.8653 17.9509 1.82694 16.8905 1.96767C14.7346 2.25389 11.9674 3.23682 9.14926 4.90419C6.33089 6.57178 4.11562 8.53705 2.79574 10.3075C2.14969 11.1742 1.76293 11.9362 1.59066 12.5448C1.5838 12.569 1.57724 12.5927 1.57113 12.6161C1.47769 12.9746 1.46968 13.2353 1.50082 13.4247C1.51858 13.5314 1.54874 13.6151 1.58188 13.6806C1.58681 13.6903 1.59146 13.6999 1.59652 13.7089C1.69837 13.8887 1.94008 14.1268 2.53402 14.285C3.13734 14.4457 3.9901 14.4881 5.07113 14.3446C5.88466 14.2366 6.78462 14.0275 7.74203 13.7216C7.66489 13.6497 7.5905 13.5677 7.52231 13.4735L7.41488 13.3046L7.33383 13.1425C6.97673 12.3355 7.33547 11.5737 7.49106 11.2909C7.71101 10.8912 8.03154 10.52 8.35434 10.2001C9.0171 9.54337 9.95718 8.84228 11.0145 8.21669C12.0717 7.59115 13.1341 7.10742 14.0204 6.84755C14.452 6.72101 14.9262 6.62223 15.3739 6.62685C15.7118 6.63039 16.6266 6.70097 17.1141 7.5663C17.2089 7.73469 17.2671 7.90429 17.3016 8.06728C18.04 7.36962 18.6672 6.67365 19.1659 6.00478C19.8275 5.11718 20.2177 4.33927 20.3836 3.72353C20.5297 3.1812 20.4805 2.85724 20.3963 2.66591C20.3864 2.64343 20.3757 2.62235 20.3651 2.60341C20.2651 2.42618 20.0296 2.19253 19.4539 2.03407C19.4339 2.02857 19.4133 2.02375 19.3924 2.01845ZM15.8231 8.32997C15.5392 7.8267 13.7159 8.36068 11.7508 9.52333C9.78588 10.686 8.42291 12.0372 8.7059 12.5409C8.99035 13.0437 10.9993 12.3991 12.7782 11.3466C14.5014 10.3269 16.0094 8.92438 15.8446 8.37978L15.8231 8.32997ZM11.5672 1.63075C10.1068 1.42119 8.84924 1.43376 7.60824 2.16786C6.3672 2.90218 5.72782 4.01198 5.17465 5.41298C5.0979 5.60737 5.02332 5.80317 4.95004 6.00282C5.98083 5.16187 7.14478 4.3479 8.41293 3.59755C9.68103 2.84725 10.9506 2.22178 12.1766 1.72743C11.9715 1.69269 11.7696 1.6598 11.5672 1.63075Z" fill="var(--fill-0, #1B1F3B)"/>
</svg>
