<svg width="89" height="32" viewBox="0 0 89 32" fill="none" xmlns="http://www.w3.org/2000/svg">
<path d="M9.54395 26.4082H10.8535V30.9951H8.78125V28.3906H2.07324V30.9951H0V26.4082H1.19336C1.79281 25.5662 2.09274 24.394 2.09277 22.8916V18.6748H9.54395V26.4082ZM16.8027 18.4219C18.2499 18.4219 19.4691 18.9139 20.46 19.8984C21.4638 20.8829 21.9657 22.0944 21.9658 23.5322C21.9658 24.9702 21.4639 26.1824 20.46 27.167C19.4691 28.1515 18.2498 28.6436 16.8027 28.6436C15.3687 28.6436 14.1494 28.1515 13.1455 27.167C12.1416 26.1824 11.6396 24.9702 11.6396 23.5322C11.6397 22.0944 12.1417 20.8829 13.1455 19.8984C14.1494 18.9139 15.3686 18.4219 16.8027 18.4219ZM28.8623 23.1631L31.6982 18.6748H33.8496V28.3906H31.7959V21.9971L28.9795 26.4473H28.7256L25.9287 22.0166V28.3906H23.875V18.6748H26.0264L28.8623 23.1631ZM16.8027 20.4619C15.9423 20.4619 15.2185 20.7539 14.6318 21.3369C14.0453 21.9198 13.752 22.6515 13.752 23.5322C13.752 24.4131 14.0452 25.1455 14.6318 25.7285C15.2185 26.3115 15.9423 26.6025 16.8027 26.6025C17.6632 26.6025 18.3869 26.3115 18.9736 25.7285C19.5603 25.1456 19.8535 24.4131 19.8535 23.5322C19.8534 22.6515 19.5601 21.9198 18.9736 21.3369C18.3869 20.7539 17.6632 20.4619 16.8027 20.4619ZM4.16504 22.8916C4.16502 24.2774 3.95056 25.4497 3.52051 26.4082H7.4707V20.5986H4.16504V22.8916ZM34.5322 8.29492L37.0352 1.22168H39.2842L35.5293 11.249C35.073 12.4794 34.4344 13.399 33.6133 14.0078C32.7919 14.6167 31.8399 14.889 30.7578 14.8242V12.8613C31.4227 12.9002 31.9572 12.764 32.3613 12.4531C32.7784 12.1552 33.1107 11.6696 33.3584 10.9961L33.417 10.8604L29.3105 1.22168H31.5596L34.5322 8.29492ZM65.4326 8.29492L67.9355 1.22168H70.1846L66.4297 11.249C65.9734 12.4794 65.3348 13.399 64.5137 14.0078C63.6923 14.6167 62.7403 14.889 61.6582 14.8242V12.8613C62.3231 12.9002 62.8576 12.764 63.2617 12.4531C63.6789 12.1552 64.0121 11.6698 64.2598 10.9961L64.3184 10.8604L60.2109 1.22168H62.46L65.4326 8.29492ZM13.1543 0.96875C14.6013 0.96875 15.8207 1.46092 16.8115 2.44531C17.8153 3.4298 18.3173 4.64128 18.3174 6.0791C18.3174 7.51712 17.8154 8.72928 16.8115 9.71387C15.8207 10.6982 14.6013 11.1904 13.1543 11.1904C11.7205 11.1903 10.5018 10.6981 9.49805 9.71387C8.49415 8.72928 7.99219 7.51712 7.99219 6.0791C7.99229 4.64128 8.49425 3.4298 9.49805 2.44531C10.5018 1.46104 11.7205 0.968854 13.1543 0.96875ZM24.8428 0.96875C25.7943 0.968757 26.6612 1.1952 27.4434 1.64844C28.2256 2.10187 28.813 2.71124 29.2041 3.47559L27.3848 4.52539C27.1631 4.05901 26.8245 3.69563 26.3682 3.43652C25.9249 3.1645 25.4099 3.02833 24.8232 3.02832C23.9628 3.02832 23.239 3.32034 22.6523 3.90332C22.0789 4.48618 21.7921 5.21138 21.792 6.0791C21.792 6.94704 22.0788 7.6729 22.6523 8.25586C23.239 8.83884 23.9628 9.13086 24.8232 9.13086C25.3968 9.13085 25.9119 8.99466 26.3682 8.72266C26.8375 8.4506 27.1892 8.08722 27.4238 7.63379L29.2432 8.66406C28.826 9.44137 28.2256 10.0563 27.4434 10.5098C26.6611 10.9631 25.7945 11.1904 24.8428 11.1904C23.3696 11.1904 22.1373 10.6983 21.1465 9.71387C20.1687 8.72928 19.6797 7.51712 19.6797 6.0791C19.6798 4.62832 20.1688 3.41685 21.1465 2.44531C22.1373 1.4608 23.3696 0.96875 24.8428 0.96875ZM44.8379 0.96875C45.7896 0.96875 46.6572 1.19505 47.4395 1.64844C48.2217 2.10185 48.8081 2.71126 49.1992 3.47559L47.3809 4.52539C47.1592 4.05901 46.8196 3.69563 46.3633 3.43652C45.9201 3.16463 45.4049 3.02832 44.8184 3.02832C43.9581 3.02842 43.235 3.32049 42.6484 3.90332C42.0749 4.4862 41.7872 5.2113 41.7871 6.0791C41.7871 6.94709 42.0748 7.67288 42.6484 8.25586C43.235 8.83865 43.9581 9.13076 44.8184 9.13086C45.3918 9.13086 45.9071 8.99453 46.3633 8.72266C46.8326 8.4506 47.1852 8.08722 47.4199 7.63379L49.2383 8.66406C48.8211 9.44124 48.2215 10.0564 47.4395 10.5098C46.6572 10.9632 45.7896 11.1904 44.8379 11.1904C43.365 11.1903 42.1333 10.6981 41.1426 9.71387C40.1648 8.72928 39.6758 7.51712 39.6758 6.0791C39.6759 4.62832 40.1649 3.41685 41.1426 2.44531C42.1333 1.46106 43.365 0.96885 44.8379 0.96875ZM58.8838 10.9375H56.7725V3.24219H53.5059V6.85645C53.5059 8.398 53.1671 9.49285 52.4893 10.1406C51.8113 10.7884 50.8463 11.0541 49.5947 10.9375V8.97461C50.1945 9.07825 50.6445 8.95526 50.9443 8.60547C51.2441 8.25566 51.3945 7.64052 51.3945 6.75977V1.22168H58.8838V10.9375ZM7.49023 3.24219H3.05078V10.9375H0.938477V1.22168H7.49023V3.24219ZM78.0566 3.24219H73.6172V10.9375H71.5059V1.22168H78.0566V3.24219ZM81.5615 7.38184L86.5684 1.22168H88.1914V10.9375H86.1182V4.75781L81.1113 10.9375H79.4883V1.22168H81.5615V7.38184ZM13.1543 3.00879C12.2941 3.00889 11.5709 3.30099 10.9844 3.88379C10.3978 4.46667 10.1036 5.19835 10.1035 6.0791C10.1035 6.96005 10.3977 7.69241 10.9844 8.27539C11.5709 8.85815 12.2941 9.14931 13.1543 9.14941C14.0147 9.14941 14.7385 8.85827 15.3252 8.27539C15.9119 7.69241 16.2051 6.96005 16.2051 6.0791C16.205 5.19835 15.9118 4.46667 15.3252 3.88379C14.7385 3.30087 14.0147 3.00879 13.1543 3.00879Z" fill="#2C50E6"/>
</svg>
