<svg width="132.966" height="18" viewBox="0 0 132.966 18" fill="none" xmlns="http://www.w3.org/2000/svg">
<g id="Logo_OIS">
<path id="Union" d="M85.3519 4.81047C86.229 4.81032 86.8069 4.25852 86.8069 3.3759C86.8068 2.49345 86.2289 1.94148 85.3519 1.94133C84.48 1.94133 83.891 2.49333 83.8909 3.3759C83.8909 4.25864 84.4799 4.81047 85.3519 4.81047ZM92.1146 4.81047C92.8971 4.81041 93.3335 4.45317 93.4544 3.8593H92.5296C92.4718 4.0011 92.3559 4.06436 92.1302 4.06438C91.7887 4.06438 91.621 3.8696 91.5843 3.49699H93.4749V3.28703C93.4749 2.46768 92.9599 1.94133 92.0931 1.94133C91.2369 1.94147 90.68 2.48276 90.68 3.3759C90.68 4.27422 91.2478 4.81047 92.1146 4.81047ZM94.9661 4.51067H95.1126C95.2544 4.69456 95.4544 4.81047 95.7962 4.81047C96.4948 4.81039 96.931 4.21113 96.931 3.3759C96.9309 2.54079 96.5105 1.94141 95.7962 1.94133C95.4388 1.94133 95.2285 2.05739 95.0814 2.24113H94.9339V2.00969H94.0511V5.79289H94.9661V4.51067ZM98.2835 4.81047C98.6354 4.81047 98.8403 4.71589 99.0032 4.53215H99.1507V4.74211H99.9856V3.01945C99.9856 2.21554 99.4551 1.94136 98.6829 1.94133C97.9842 1.94133 97.485 2.29381 97.469 2.82414H98.3724C98.3934 2.67697 98.5047 2.58879 98.7356 2.58879C98.9668 2.58889 99.1087 2.67778 99.1087 2.93547V2.98235H98.4778C97.648 2.98239 97.3276 3.46537 97.3274 3.89055C97.3274 4.37417 97.6792 4.81047 98.2835 4.81047ZM104.952 4.81047C105.83 4.81037 106.408 4.25856 106.408 3.3759C106.407 2.49341 105.83 1.94143 104.952 1.94133C104.081 1.94133 103.492 2.49333 103.492 3.3759C103.492 4.25864 104.08 4.81047 104.952 4.81047ZM107.898 4.51067H108.045C108.187 4.69446 108.386 4.81038 108.728 4.81047C109.427 4.81047 109.863 4.21119 109.863 3.3759C109.863 2.54074 109.442 1.94133 108.728 1.94133C108.371 1.94142 108.16 2.05732 108.013 2.24113H107.867V2.00969H106.984V5.79289H107.898V4.51067ZM88.2972 2.75578H89.1898V4.74211H90.1038V2.00969H87.3821V4.74211H88.2972V2.75578ZM102.254 2.75578H103.12V2.00969H100.473V2.75578H101.339V4.74211H102.254V2.75578ZM91.6204 2.95012C91.6886 2.719 91.8253 2.5928 92.0931 2.5927C92.3397 2.5927 92.492 2.71398 92.5394 2.95012H91.6204ZM85.3519 4.06438C84.9685 4.06438 84.805 3.75961 84.805 3.3759C84.8051 2.99787 84.9686 2.68742 85.3519 2.68742C85.7297 2.68762 85.8928 2.99799 85.8929 3.3759C85.8929 3.75949 85.7298 4.06418 85.3519 4.06438ZM95.4808 4.06438C95.0971 4.06438 94.929 3.74368 94.929 3.3759C94.9291 3.00822 95.0971 2.68742 95.4808 2.68742C95.864 2.68744 96.0168 3.00823 96.0169 3.3759C96.0169 3.74367 95.8641 4.06436 95.4808 4.06438ZM104.952 4.06438C104.569 4.06438 104.406 3.75961 104.406 3.3759C104.406 2.99787 104.569 2.68742 104.952 2.68742C105.33 2.68756 105.493 2.99795 105.493 3.3759C105.493 3.75953 105.33 4.06424 104.952 4.06438ZM108.413 4.06438C108.03 4.06438 107.861 3.74368 107.861 3.3759C107.861 3.00822 108.03 2.68742 108.413 2.68742C108.796 2.68767 108.948 3.00837 108.949 3.3759C108.949 3.74354 108.796 4.06413 108.413 4.06438ZM98.6302 4.13762C98.3832 4.13757 98.2415 4.02747 98.2415 3.81731C98.2415 3.61251 98.4152 3.50188 98.6673 3.50188H99.1087V3.66496C99.1087 3.93319 98.9296 4.13762 98.6302 4.13762ZM93.2278 10.6181C94.1892 10.6181 94.7306 10.0461 94.7308 9.25285C94.7308 8.45947 94.1893 7.88666 93.2278 7.88664V6.79875H92.345V7.88664C91.3838 7.88673 90.8431 8.45952 90.8431 9.25285C90.8432 10.046 91.3839 10.618 92.345 10.6181V11.6689H93.2278V10.6181ZM131.584 7.6718C132.231 7.67174 132.561 7.35016 132.624 6.86711H131.931C131.894 6.97756 131.81 7.10923 131.584 7.1093C131.358 7.1093 131.274 6.97759 131.238 6.86711H130.544C130.607 7.3502 130.938 7.6718 131.584 7.6718ZM96.6194 10.6864C97.4967 10.6864 98.0744 10.1354 98.0745 9.25285C98.0745 8.37013 97.4968 7.8183 96.6194 7.81828C95.7474 7.81828 95.1585 8.37011 95.1585 9.25285C95.1587 10.1354 95.7476 10.6864 96.6194 10.6864ZM99.5648 10.3876H99.7122C99.854 10.5714 100.054 10.6874 100.396 10.6874C101.094 10.6872 101.53 10.0879 101.53 9.25285C101.53 8.41769 101.11 7.81847 100.396 7.81828C100.038 7.81828 99.8281 7.93424 99.681 8.11809H99.5335V7.88664H98.6507V11.6689H99.5648V10.3876ZM106.999 10.6874C107.351 10.6874 107.557 10.592 107.72 10.4081H107.867V10.6191H108.702V8.89543C108.702 8.09152 108.171 7.81828 107.399 7.81828C106.7 7.8184 106.202 8.17065 106.186 8.7011H107.089C107.11 8.55375 107.22 8.46479 107.451 8.46477C107.683 8.46477 107.824 8.55366 107.825 8.81145V8.85832H107.195C106.365 8.85832 106.043 9.34225 106.043 9.7675C106.043 10.2509 106.395 10.6872 106.999 10.6874ZM117.896 10.6864C118.773 10.6864 119.351 10.1353 119.351 9.25285C119.351 8.37018 118.773 7.81836 117.896 7.81828C117.024 7.81828 116.435 8.37011 116.435 9.25285C116.435 10.1354 117.024 10.6864 117.896 10.6864ZM128.171 10.6864C129.048 10.6863 129.626 10.1353 129.626 9.25285C129.626 8.37021 129.048 7.81841 128.171 7.81828C127.299 7.81828 126.71 8.37011 126.71 9.25285C126.71 10.1354 127.299 10.6864 128.171 10.6864ZM85.7874 9.37883H85.9134V10.6181H86.8011V7.88664H86.0286L85.0521 9.12688H84.9251V7.88664H84.0374V10.6181H84.8099L85.7874 9.37883ZM88.4388 9.58879H89.3528V10.6181H90.2669V7.88664H89.3528V8.8427H88.4388V7.88664H87.5247V10.6181H88.4388V9.58879ZM102.993 9.14738H103.141L103.456 9.85637H104.15L104.465 9.14738H104.612V10.6181H105.499V7.88664H104.36L103.876 8.97942H103.729L103.246 7.88664H102.106V10.6181H102.993V9.14738ZM112.567 9.87297H112.094V7.88664H111.18V9.87297H110.308V7.88664H109.394V10.6181H111.716V11.37H112.567V9.87297ZM114.845 9.37883H114.971V10.6181H115.86V7.88664H115.087L114.11 9.12688H113.984V7.88664H113.096V10.6181H113.868L114.845 9.37883ZM120.841 9.58879H121.755V10.6181H122.669V7.88664H121.755V8.8427H120.841V7.88664H119.926V10.6181H120.841V9.58879ZM124.307 9.58879H125.221V10.6181H126.135V7.88664H125.221V8.8427H124.307V7.88664H123.393V10.6181H124.307V9.58879ZM131.952 9.37883H132.078V10.6191H132.966V7.88664H132.194L131.216 9.12688H131.09V7.88664H130.202V10.6191H130.975L131.952 9.37883ZM92.345 9.94035C91.9304 9.94025 91.7358 9.6258 91.7356 9.25285C91.7356 8.87977 91.9303 8.56448 92.345 8.56438V9.94035ZM93.2278 8.56438C93.643 8.5644 93.8372 8.87972 93.8372 9.25285C93.8371 9.62585 93.6429 9.94033 93.2278 9.94035V8.56438ZM96.6194 9.94035C96.2362 9.94035 96.0736 9.6364 96.0735 9.25285C96.0735 8.87469 96.2361 8.56438 96.6194 8.56438C96.9976 8.5644 97.1605 8.8747 97.1605 9.25285C97.1604 9.63638 96.9975 9.94033 96.6194 9.94035ZM100.08 9.94035C99.6967 9.94035 99.5287 9.62055 99.5286 9.25285C99.5286 8.88508 99.6967 8.56438 100.08 8.56438C100.464 8.5645 100.617 8.88514 100.617 9.25285C100.616 9.62048 100.464 9.94023 100.08 9.94035ZM117.896 9.94035C117.512 9.94035 117.349 9.6364 117.349 9.25285C117.349 8.87469 117.512 8.56438 117.896 8.56438C118.274 8.56448 118.437 8.87475 118.437 9.25285C118.437 9.63633 118.274 9.94025 117.896 9.94035ZM128.171 9.94035C127.788 9.94035 127.624 9.6364 127.624 9.25285C127.624 8.87469 127.788 8.56438 128.171 8.56438C128.549 8.56454 128.712 8.87479 128.712 9.25285C128.712 9.6363 128.549 9.94019 128.171 9.94035ZM107.347 10.0146C107.1 10.0146 106.958 9.90423 106.958 9.69426C106.958 9.48948 107.131 9.3789 107.383 9.37883H107.825V9.54192C107.824 9.80984 107.646 10.0144 107.347 10.0146ZM85.304 16.5634C86.0184 16.5634 86.5491 16.1376 86.6067 15.5175H85.7093C85.683 15.7069 85.5356 15.8173 85.3099 15.8173C84.9421 15.8173 84.805 15.507 84.805 15.1288C84.805 14.7558 84.937 14.4404 85.3099 14.4404C85.5092 14.4404 85.6358 14.5249 85.6829 14.6874H86.5804C86.5225 14.0887 86.0131 13.6943 85.304 13.6943C84.4584 13.6944 83.891 14.2413 83.8909 15.1288C83.8909 16.027 84.4584 16.5632 85.304 16.5634ZM91.9466 16.5634C92.6609 16.5633 93.1917 16.1375 93.2493 15.5175H92.3509C92.3247 15.7069 92.1773 15.8173 91.9515 15.8173C91.5839 15.8171 91.4476 15.5069 91.4476 15.1288C91.4476 14.7559 91.5785 14.4405 91.9515 14.4404C92.1508 14.4404 92.2771 14.525 92.3245 14.6874H93.223C93.1649 14.0888 92.6556 13.6943 91.9466 13.6943C91.1008 13.6943 90.5336 14.2412 90.5335 15.1288C90.5335 16.0271 91.1007 16.5634 91.9466 16.5634ZM98.0843 16.5634C98.8669 16.5634 99.3033 16.2062 99.4241 15.6122H98.4993C98.4415 15.754 98.3257 15.8173 98.0999 15.8173C97.7587 15.8171 97.5907 15.6224 97.554 15.2499H99.4456V15.04C99.4456 14.2207 98.9305 13.6943 98.0638 13.6943C97.2074 13.6943 96.6498 14.2356 96.6497 15.1288C96.6497 16.027 97.2176 16.5633 98.0843 16.5634ZM88.9437 15.2548H89.0696V16.495H89.9573V13.7636H89.1849L88.2073 15.0029H88.0814V13.7636H87.1937V16.495H87.9661L88.9437 15.2548ZM95.4124 14.5087H96.2796V13.7636H93.6312V14.5087H94.4983V16.495H95.4124V14.5087ZM100.909 15.0243H101.056L101.371 15.7333H102.065L102.38 15.0243H102.527V16.495H103.415V13.7636H102.275L101.791 14.8554H101.645L101.161 13.7636H100.021V16.495H100.909V15.0243ZM105.588 16.495C106.323 16.495 106.723 16.117 106.723 15.4921C106.723 14.8771 106.324 14.5087 105.588 14.5087H105.052V13.7636H104.138V16.495H105.588ZM108.026 16.495V13.7636H107.112V16.495H108.026ZM97.5911 14.703C97.6594 14.472 97.7959 14.3466 98.0638 14.3466C98.3103 14.3466 98.4627 14.467 98.5101 14.703H97.5911ZM105.052 15.7489V15.1816H105.451C105.73 15.1816 105.809 15.2867 105.809 15.4706C105.809 15.6388 105.73 15.7489 105.451 15.7489H105.052Z" fill="var(--fill-0, #9099AB)"/>
<path id="Union_2" d="M13.71 18C24.9248 18 26.3467 12.5436 26.3467 9.30273V8.60352C26.3467 5.33936 24.9014 3.46986e-05 13.71 0H12.6602C1.42244 0.000137976 1.6048e-05 5.33939 0 8.60352V9.30273C0 12.5436 1.42237 17.9999 12.6602 18H13.71ZM66.8936 18C77.3387 17.9999 78.9707 13.1034 78.9707 10.8418V10.4688H72.1162C72.0229 10.865 71.5096 13.3135 66.4033 13.3135C61.7403 13.3134 60.5742 10.8652 60.5742 9V8.71973C60.5744 6.78483 61.6006 4.66317 66.3799 4.66309C71.4162 4.66309 71.9529 6.85503 72.0928 7.32129H78.9707V7.01758C78.9705 4.77923 77.4313 0.000119543 66.8936 0H65.9834C55.1651 0.000111583 53.7197 5.29283 53.7197 8.60352V9.28027C53.7199 12.5677 55.3288 17.9999 65.9834 18H66.8936ZM45.4893 7.1582V17.6738H52.0645V0.326172H44.6494L34.5771 10.1895V0.326172H28.002V17.6738H34.624L45.4893 7.1582ZM13.1738 13.3135C8.04441 13.3135 6.85456 10.8653 6.85449 9.04688V8.7666C6.8546 6.92472 7.95124 4.66309 13.1738 4.66309C18.3029 4.66316 19.4921 6.92474 19.4922 8.7666V9.09375C19.492 10.9589 18.3028 13.3134 13.1738 13.3135Z" fill="var(--fill-0, #9099AB)"/>
</g>
</svg>
