<svg width="94.3781" height="20" viewBox="0 0 94.3781 20" fill="none" xmlns="http://www.w3.org/2000/svg">
<g id="Group">
<path id="Vector" d="M24.6587 5.50694H23.4155V0.708417H24.6587V5.50694Z" fill="var(--fill-0, #CACDD7)"/>
<path id="Vector_2" d="M24.6587 10.3074H23.4155V5.50991H24.6587V10.3074Z" fill="var(--fill-0, #788090)"/>
<path id="Vector_3" d="M24.6587 15.105H23.4155V10.3068H24.6587V15.105Z" fill="var(--fill-0, #CACDD7)"/>
<path id="Vector_4" d="M24.6587 19.9012H23.4155V15.1036H24.6587V19.9012Z" fill="var(--fill-0, #ECEEF4)"/>
<path id="Vector_5" d="M11.2636 10.1322C11.2845 10.0911 11.2945 10.0112 11.2945 10.0112L11.2636 10.0012V10.1322Z" fill="var(--fill-0, #A5ACBD)"/>
<path id="Union" d="M9.36328 0C9.30524 0.0517863 9.21353 0.157889 9.19238 0.21875C9.26509 0.208323 9.37507 0.104211 9.42676 0.0634766V0.606445C9.37506 0.55302 9.26509 0.453933 9.19238 0.433594C9.21341 0.506367 9.30518 0.616131 9.36328 0.667969H9.26465C9.3272 0.709699 9.36313 0.798585 9.36328 0.871094C9.36328 0.97475 9.30543 1.07538 9.22363 1.11719C9.24438 1.11719 9.26443 1.11722 9.28516 1.10742L9.27637 1.24219L9.39551 1.25195L9.41602 1.14746C9.50956 1.11668 9.58248 1.13794 9.64062 1.17871C10.213 1.29506 10.5742 1.57045 10.3301 2.2334C10.2356 2.4879 10.114 2.76581 9.97949 2.99023L9.97266 3.26758L9.97461 3.2666C9.98461 3.28196 9.99988 3.30293 10.0215 3.32812C10.2078 3.5843 10.9019 4.00733 11.2891 4.13281V4.06543C11.2109 3.93366 11.1484 3.77754 11.0957 3.63574C10.9233 3.17723 11.1795 2.99037 11.5654 2.90137C11.6072 2.87037 11.66 2.85923 11.7217 2.87988H11.7324L11.7432 2.95801L11.7998 2.94238L11.79 2.84863H11.7998C11.7629 2.81686 11.7432 2.76542 11.7432 2.71289C11.7432 2.65673 11.7529 2.6138 11.79 2.58301H11.7217L11.7432 2.56152C11.7631 2.54085 11.7907 2.52089 11.8115 2.48828C11.8214 2.47818 11.831 2.45722 11.8418 2.44727C11.8309 2.45729 11.8107 2.46849 11.7998 2.47852C11.7628 2.49947 11.7425 2.52104 11.7217 2.54102L11.7012 2.56152V2.13477L11.7217 2.16016C11.7425 2.17015 11.7627 2.19095 11.7998 2.21289C11.8107 2.23367 11.8309 2.23412 11.8418 2.24414C11.8309 2.23417 11.8214 2.22296 11.8115 2.20117C11.7907 2.18143 11.7631 2.14925 11.7432 2.13477L11.7217 2.10156H12.1494L12.1279 2.13477C12.1188 2.14926 12.0981 2.18144 12.0664 2.20117C12.0564 2.22307 12.0459 2.23414 12.0459 2.24414C12.0568 2.23417 12.0661 2.23349 12.0869 2.21289C12.1078 2.19089 12.1394 2.17018 12.1494 2.16016L12.1807 2.13477V2.56152L12.1494 2.54102C12.1394 2.52097 12.1078 2.49954 12.0869 2.47852C12.0662 2.46856 12.0567 2.45722 12.0459 2.44727C12.0459 2.45729 12.0564 2.47826 12.0664 2.48828C12.098 2.52084 12.1188 2.54088 12.1279 2.56152L12.1494 2.58301H12.0986C12.1195 2.61379 12.1387 2.65684 12.1387 2.71289C12.1386 2.76562 12.1187 2.81689 12.0752 2.84863H12.0986L12.0869 2.94238L12.1387 2.95801L12.1494 2.87988H12.1611C12.2228 2.8592 12.2751 2.8704 12.3223 2.90137C12.7021 2.99034 12.9586 3.17707 12.7871 3.63574C12.7344 3.77754 12.6704 3.93366 12.5977 4.06543V4.16406C12.614 4.16406 12.6244 4.15824 12.6406 4.1582C12.896 4.10564 13.319 3.94371 13.3926 3.68848C13.4595 3.47485 13.3087 3.18783 13.2451 3.06348C13.1515 2.8491 12.9795 2.49908 13.1611 2.27441C13.2347 2.1908 13.35 2.15975 13.46 2.10156C13.596 2.03001 13.6836 1.95656 13.8506 1.87305C13.9914 1.79593 14.2272 1.89512 14.4561 2.27441C14.5123 2.35794 14.6182 2.45715 14.6592 2.49902C15.0763 2.55085 15.3436 2.68205 15.3945 2.92285C15.4888 3.4014 15.0198 3.39158 15.0566 3.68848C15.0666 3.86107 15.2448 3.74049 15.332 3.73047C15.4891 3.68891 15.6514 3.78821 15.6514 3.99707C15.6513 4.08517 15.5979 4.28263 15.3945 4.4043C15.479 4.25362 15.4679 4.06517 15.332 4.10547C15.0358 4.19984 14.8625 4.21031 14.6689 3.95508C14.6689 4.09479 14.7997 4.21016 14.8516 4.33008C14.967 4.62736 14.7688 4.94557 14.3926 4.93555C14.5509 4.77707 14.5361 4.59644 14.5352 4.58691C14.4779 4.3197 14.3096 4.24103 14.2578 4.0166C14.139 3.52152 14.5965 3.44391 14.502 2.97852C14.4919 2.91047 14.4654 2.7861 14.4346 2.72266C14.1384 2.68181 13.981 2.56139 13.7666 2.46777C13.5431 2.87947 14.1681 3.41203 13.7764 3.83008C13.5527 4.06526 13.1399 4.20042 12.7021 4.23047C12.6931 4.23061 12.6798 4.23461 12.6699 4.23535C12.699 4.25735 12.7139 4.29876 12.7139 4.35156C12.8282 4.30996 12.9171 4.37273 12.9062 4.49805C13.3396 4.4981 13.7463 4.76467 13.6475 5.28516C13.6157 5.47681 13.5431 5.56165 13.4277 5.65527C13.235 5.3581 12.6926 5.33765 12.3428 5.53125C12.5299 5.52027 12.8078 5.57197 12.9795 5.64453C13.1812 5.73376 13.4387 5.84938 13.7031 5.81836C13.883 5.79758 13.9809 5.68251 14.0127 5.55078C14.0954 5.62461 14.0336 5.98857 13.7246 6.13574C13.5629 6.21388 13.2882 6.24476 13.0947 6.10352C13.022 6.06246 12.7346 5.74435 12.3857 5.74414C12.8963 5.87963 13.0304 6.24486 12.6406 6.46387C12.6497 6.33847 12.6703 6.16613 12.416 6.01074C12.2751 5.92181 12.0564 5.86932 11.8311 5.9375C11.753 5.96853 11.6486 6.02192 11.5859 6.04199C11.4769 6.05202 11.4244 5.98881 11.3926 5.95801C11.169 6.1254 10.8294 6.64688 10.7676 6.97461C10.694 7.35085 10.7473 7.59638 10.9336 7.81641C11.002 7.88384 11.2997 8.12822 11.5967 7.87305C11.6229 8.11298 11.4993 8.29095 11.3076 8.35449C11.4763 8.37439 11.5895 8.37983 11.5938 8.38086L11.624 8.38184L11.6377 8.41113C11.6411 8.41895 11.6668 8.47886 11.6963 8.59863C11.8081 8.55952 11.8997 8.48037 11.9561 8.37305C12.2123 8.66658 12.1321 9.13981 11.7852 9.27441C11.7879 9.33701 11.79 9.40302 11.79 9.47266C12.0845 9.70442 12.6266 9.65898 12.8965 9.26465C13.094 8.96866 12.8641 8.75574 12.7441 8.63477C12.4461 8.34849 12.4467 8.07097 12.6611 7.76367C12.9375 7.35099 13.7882 6.67807 14.1162 6.1875C14.1687 6.27631 14.1994 6.35988 14.2148 6.39062C14.5229 6.1572 14.863 5.67308 14.9775 5.30664C15.0455 5.31682 15.087 5.37965 15.1396 5.42676C15.6185 4.82613 16.4801 3.38172 16.7256 2.81738C17.2463 3.06357 17.2361 3.79899 17.0752 4.2207C16.9389 4.60684 16.7046 5.01971 16.2031 5.59375C16.3603 5.47738 17.3314 4.48772 17.5449 4.3623C17.9045 4.87399 17.6592 5.77562 16.9814 6.15723C17.1951 6.06258 17.7023 5.86931 17.9775 5.9375C18.0345 6.51158 17.5646 6.90183 17.2793 7.11621C17.5546 7.05365 17.8745 7.00677 18.1807 7.09473C18.1598 7.48637 17.7578 7.92428 17.1689 8.12793C17.5442 8.09151 17.9151 8.14005 18.1387 8.27441C18.0869 8.6817 17.6377 9.03163 17.0752 9.11523C17.4549 9.15604 17.7897 9.31845 17.9561 9.54199C17.7579 9.80822 17.4554 10.012 17.001 10.002C17.2154 10.0755 17.4804 10.2991 17.5859 10.5645C17.3197 10.7724 16.9909 10.9047 16.2461 10.6387C17.1064 10.9994 16.9391 11.1704 17.0654 11.541C16.9129 11.603 16.7672 11.7645 16.3604 11.6602C16.1304 11.6018 15.744 11.2439 15.416 11.0195C15.5207 11.1394 16.0102 11.488 16.2256 11.6914C16.4591 11.9268 16.298 12.1568 16.2979 12.3594C16.1197 12.3594 15.8165 12.5 15.6084 12.3174C15.536 12.2512 14.6507 11.1505 14.5352 11.04C14.5669 11.1399 15.1405 11.8489 15.3848 12.2559C15.5782 12.5629 15.3117 12.7671 15.2744 12.9434C15.0764 12.8815 14.8003 13.001 14.6494 12.7568C14.5131 12.5214 14.075 11.6816 13.9141 11.4463C13.9814 11.6301 14.4349 12.5844 14.4658 12.668C14.5755 12.9911 14.2994 13.0542 14.1895 13.2686C14.0231 13.1485 13.7245 13.2407 13.6055 12.9326C13.5318 12.7241 13.3494 11.9992 13.2559 11.8057C13.2659 12.021 13.3283 12.3079 13.3701 12.625C13.4173 12.9428 13.1155 12.9329 12.9482 13.1162C12.8083 12.9908 12.5302 13.0216 12.4893 12.7344C12.4466 12.4786 12.4375 11.8584 12.4375 11.8584C12.3957 11.8948 12.3747 11.9055 12.332 11.9482C12.223 11.8283 12.0083 11.8279 11.9355 11.6816C11.9048 11.6916 11.8949 11.7137 11.8643 11.7344C11.628 12.1243 11.6075 12.8812 11.9355 13.1484C11.831 13.1484 11.722 13.1363 11.6484 13.1055C11.8002 13.4025 12.1194 13.5075 12.4893 13.3721C12.4793 13.4435 12.4691 13.4862 12.4375 13.5332C12.8388 13.596 13.0103 13.7526 13.1611 14.0078C13.3492 14.3512 13.1406 14.7958 13.2041 14.9795C13.245 15.0938 13.3805 15.2042 13.5957 15.1045C13.4909 15.5628 12.9175 15.5109 12.7666 15.2549C12.7139 15.4685 12.7659 15.7149 12.874 15.8076C12.6924 15.8175 12.5417 15.7452 12.4463 15.6035C12.4263 15.6463 12.426 15.705 12.416 15.7559C12.3225 15.705 12.2538 15.6463 12.2129 15.5938C12.1784 15.699 12.2074 15.7737 12.2754 15.8906C12.3854 16.0534 12.6101 16.1269 12.7764 16.1895C13.1515 16.3304 13.5631 16.4863 13.9346 16.4346C13.9809 16.4346 14.1894 16.3301 14.2275 16.1572C14.2213 16.1628 14.2207 16.1629 14.2207 16.168C14.1935 16.1162 14.1683 16.058 14.1475 16C14.0957 15.99 14.0537 15.9588 14.0537 15.8906V15.8711C14.0012 15.8294 13.9708 15.7658 13.9707 15.7051C13.9707 15.6261 14.001 15.5626 14.0537 15.5107V15.4893C14.0537 15.4486 14.0748 15.4177 14.1055 15.3906C14.1891 14.9272 14.5554 14.5508 15.0088 14.4463L14.9883 14.4365C15.0455 14.3847 15.1599 14.2535 15.1699 14.1797C15.0974 14.2016 14.9779 14.3157 14.915 14.3623V13.7627C14.9778 13.81 15.0973 13.9246 15.1699 13.9453C15.1599 13.8728 15.0456 13.7424 14.9883 13.6904H15.5977C15.5394 13.7425 15.4251 13.8729 15.416 13.9453C15.4887 13.9245 15.6092 13.8099 15.6719 13.7627V14.3623C15.6092 14.3159 15.4887 14.2017 15.416 14.1797C15.4251 14.2435 15.4989 14.3415 15.5625 14.4043C15.578 14.4043 15.5879 14.4155 15.5879 14.4365H15.5977V14.457C16.0421 14.5724 16.3871 14.9371 16.4707 15.3906C16.4906 15.4177 16.5117 15.4486 16.5117 15.4893V15.5107C16.5644 15.5626 16.5947 15.6261 16.5947 15.7051C16.5946 15.7658 16.5642 15.8294 16.5117 15.8711V15.8906C16.5117 15.9433 16.4705 15.9899 16.418 16C16.3344 16.2364 16.1834 16.44 15.9844 16.5801L15.9814 16.5654C15.9896 16.6283 15.9795 16.7173 15.9277 16.7627C15.8288 16.8515 15.6826 16.8514 15.5781 16.9141C15.4891 16.9666 15.4471 17.0652 15.3525 17.0859C15.2217 17.1277 15.0762 17.0766 14.9463 17.1074C14.7583 17.1602 14.701 17.2841 14.5557 17.2842C14.3931 17.2842 14.4347 17.1805 14.1797 17.1377C14.0134 17.0551 13.8192 16.9146 13.6475 16.8418C13.3804 16.7321 13.0627 16.7317 12.7666 16.6689C12.5003 16.6171 12.2654 16.5137 11.9883 16.4766C11.8311 16.4448 11.2466 16.4656 11.1582 16.3613C11.0955 16.2215 11.2786 16.1891 11.3105 15.8506C11.3105 15.8396 11.3178 15.7969 11.3232 15.7578C11.1606 15.8268 10.98 15.8023 10.8818 15.7559C10.7971 15.7248 10.5948 15.5727 10.5947 15.3496C10.7674 15.4276 11.1484 15.532 11.2002 15.1348C11.2465 14.786 10.9333 14.4892 10.46 14.6191C10.1265 14.7027 9.65065 15.4007 10.083 15.7051C10.2975 15.8505 10.6258 15.9902 10.584 16.3721C10.4495 16.1992 10.2562 16.1167 10.0117 16.1377C10.3706 16.4038 10.6481 16.4341 11.0225 16.6377C11.3522 16.8302 11.5963 17.1498 11.8516 17.1602C12.0559 17.1699 12.1608 16.9348 11.9668 16.7529C12.1612 16.7113 12.4166 16.8628 12.4893 17.0654C12.5891 17.3415 12.5099 17.5394 12.3428 17.6504C12.5727 17.7748 12.7446 18.0204 12.6611 18.3701C12.5893 18.6563 12.2964 18.6565 12.4053 19.0215C12.2428 18.9789 12.1396 18.8701 12.0986 18.7139C12.0759 18.6048 12.0563 18.4903 11.999 18.4375C12.019 18.6565 11.8946 18.9788 11.5967 19.126C11.3931 19.225 11.0745 19.2662 10.8291 19.0117C10.7346 19.2988 10.3809 19.543 10.043 19.5332C9.88582 19.5332 9.72471 19.4644 9.6084 19.3936C9.52117 19.6062 9.30589 19.8211 9.08691 19.9248C8.87341 19.8212 8.65981 19.6062 8.57617 19.3936C8.45621 19.4645 8.29946 19.5332 8.1377 19.5332C7.78691 19.5432 7.44867 19.299 7.34961 19.0117C7.1052 19.2661 6.78663 19.2249 6.58398 19.126C6.28594 18.9788 6.15986 18.6565 6.18164 18.4375C6.12818 18.4904 6.10876 18.605 6.08789 18.7139C6.04063 18.8703 5.93616 18.979 5.77441 19.0215C5.8834 18.6563 5.59663 18.6564 5.51758 18.3701C5.43588 18.0205 5.60743 17.7749 5.84082 17.6504C5.66933 17.5394 5.59698 17.3414 5.69043 17.0654C5.76404 16.8628 6.01927 16.7111 6.21191 16.7529C6.01974 16.9347 6.12837 17.1696 6.32617 17.1602C6.58336 17.1501 6.82819 16.8303 7.15625 16.6377C7.5324 16.4341 7.80907 16.4039 8.16797 16.1377C7.9235 16.1167 7.73566 16.1992 7.5957 16.3721C7.55301 15.9904 7.88215 15.8505 8.0957 15.7051C8.53375 15.4007 8.05364 14.7028 7.72559 14.6191C7.24509 14.4893 6.93689 14.786 6.97949 15.1348C7.02036 15.532 7.4125 15.4276 7.5752 15.3496C7.58512 15.573 7.38145 15.7251 7.29785 15.7559C7.21968 15.7922 7.09523 15.8118 6.95996 15.7871C6.97996 15.8309 6.99981 15.8796 7.01074 15.9131C7.0526 16.0212 7.18299 16.1263 7.2041 16.2461C7.21409 16.2976 7.18379 16.351 7.13574 16.3818C6.98035 16.5019 6.71325 16.4449 6.52148 16.4238C6.39419 16.4141 6.1706 16.4236 6.05078 16.4346C5.57571 16.4655 5.15871 16.7007 4.78809 16.9668C4.72083 17.0079 4.53263 17.128 4.38086 17.2236C4.40266 17.2845 4.43472 17.3838 4.42383 17.4473C4.51081 17.4883 4.56353 17.6289 4.50098 17.7432C4.53275 17.806 4.55343 17.9055 4.51074 17.958C4.574 18.0626 4.50075 18.1821 4.45898 18.2031C4.39093 18.2339 4.2776 18.2337 4.21484 18.1299C4.10596 18.1045 4.05319 18.0405 4.03223 17.9688C3.8396 17.916 3.76572 17.7533 3.87012 17.6289C3.75561 17.5715 3.71332 17.5394 3.61426 17.4668C3.50978 17.4566 3.34879 17.3941 3.34863 17.2236C3.14973 17.2117 3.01995 17.1072 3.06152 16.873C2.95701 16.842 2.90567 16.8007 2.88477 16.6689C2.86206 16.4864 3.03996 16.32 3.11816 16.209C3.10812 16.1373 3.05086 15.934 3.05078 15.8711C2.92638 15.8176 2.86223 15.6932 2.88477 15.5732C2.71209 15.4378 2.82566 15.2337 2.80566 15.1709C2.77476 15.0825 2.71264 15.0943 2.6709 15.125C2.6709 15.0624 2.69011 15.0301 2.71191 14.999C2.6178 14.9571 2.5766 14.848 2.61816 14.7236L1.53223 12.0938C1.40195 12.052 1.3611 11.9898 1.38086 11.8955C1.27726 11.8591 1.19824 11.7648 1.19824 11.6504V11.6299C1.12554 11.6607 1.02061 11.6608 0.969727 11.5508L0.681641 11.373C0.71254 11.3369 0.605188 11.3522 0.509766 11.2432C0.387999 11.1195 0.334095 10.9205 0.348633 10.6787L0.614258 10.7842C0.626 10.7533 0.635525 10.7222 0.655273 10.7012C0.62801 10.6623 0.621432 10.6214 0.625977 10.5859C0.614161 10.5796 0.604656 10.5698 0.59375 10.5645C0.61739 10.5036 0.661351 10.4329 0.703125 10.3721C0.707661 10.3347 0.731935 10.2993 0.775391 10.2676V10.2168C0.779289 10.2053 0.78705 10.1954 0.797852 10.1904C0.81774 10.1906 0.83975 10.2 0.850586 10.21C0.954113 10.1111 1.07431 10.0383 1.17871 10.002C0.723409 10.012 0.426292 9.80822 0.223633 9.54199C0.394486 9.3183 0.722965 9.15606 1.09375 9.11523C0.542116 9.03162 0.0818433 8.68171 0.0400391 8.27441C0.264477 8.13997 0.63563 8.09153 1 8.12793C0.426669 7.92425 0.0208995 7.48632 0 7.09473C0.307939 7.00689 0.626137 7.05366 0.901367 7.11621C0.614266 6.90186 0.150706 6.51176 0.203125 5.9375C0.478487 5.86929 0.990129 6.06262 1.19824 6.15723C0.521238 5.77563 0.275961 4.874 0.635742 4.3623C0.850416 4.48797 1.82028 5.4774 1.97656 5.59375C1.48141 5.01964 1.2446 4.60688 1.10645 4.2207C0.94835 3.79907 0.938298 3.06372 1.45508 2.81738C1.69954 3.38163 2.56473 4.82609 3.04004 5.42676C3.09275 5.37957 3.13951 5.31666 3.20312 5.30664C3.31679 5.67297 3.66075 6.15715 3.96777 6.39062C3.97866 6.35986 4.01089 6.27636 4.06348 6.1875C4.39069 6.6781 5.24216 7.35104 5.51758 7.76367C5.73205 8.07097 5.73182 8.34849 5.43555 8.63477C5.3191 8.75584 5.08584 8.96874 5.28906 9.26465C5.55444 9.65629 6.08942 9.70392 6.38477 9.47656C6.38477 9.40578 6.38604 9.33691 6.38965 9.27246C6.04647 9.13511 5.9674 8.66557 6.22266 8.37305C6.27901 8.47939 6.37036 8.55658 6.47852 8.59766C6.50895 8.47859 6.53395 8.41881 6.53809 8.41113L6.5498 8.38184L6.58008 8.38086C6.58372 8.37988 6.6994 8.37356 6.87207 8.35449C6.67947 8.28997 6.55593 8.11202 6.58398 7.87305C6.88105 8.12809 7.1833 7.88364 7.24512 7.81641C7.43324 7.59638 7.49027 7.35085 7.41211 6.97461C7.33837 6.64675 7.01054 6.12518 6.78613 5.95801C6.75522 5.98884 6.70265 6.05197 6.59375 6.04199C6.53027 6.02199 6.42681 5.96858 6.34961 5.9375C6.12878 5.86929 5.90454 5.92175 5.76367 6.01074C5.50877 6.16608 5.52858 6.33852 5.54492 6.46387C5.14795 6.24481 5.28885 5.87956 5.7959 5.74414C5.44601 5.74414 5.15857 6.06244 5.08496 6.10352C4.89232 6.24498 4.61618 6.21396 4.45898 6.13574C4.14662 5.98862 4.08363 5.6249 4.16699 5.55078C4.20426 5.68249 4.29707 5.7975 4.48047 5.81836C4.7466 5.84939 5.00124 5.73374 5.2002 5.64453C5.37184 5.57197 5.64907 5.52035 5.84082 5.53125C5.48728 5.33775 4.94492 5.35805 4.75684 5.65527C4.63699 5.5617 4.56311 5.47672 4.53223 5.28516C4.43438 4.76484 4.83057 4.49819 5.27832 4.49805C5.26287 4.37264 5.35222 4.30977 5.46582 4.35156C5.46582 4.29876 5.48172 4.25735 5.51172 4.2373C5.50082 4.23535 5.48566 4.23047 5.47656 4.23047C5.04412 4.20037 4.6268 4.06542 4.40234 3.83008C4.01067 3.41203 4.62749 2.87947 4.41211 2.46777C4.20502 2.56136 4.04292 2.68177 3.74512 2.72266C3.71427 2.78611 3.69264 2.91048 3.68262 2.97852C3.58268 3.44386 4.0428 3.52166 3.92773 4.0166C3.87048 4.24103 3.704 4.3197 3.65039 4.58691C3.64891 4.59526 3.61863 4.77657 3.78613 4.93555C3.40556 4.94537 3.21274 4.62727 3.32812 4.33008C3.38538 4.21008 3.50977 4.09488 3.50977 3.95508C3.31629 4.21006 3.14953 4.19977 2.85254 4.10547C2.71258 4.06464 2.70252 4.25346 2.78613 4.4043C2.58724 4.28263 2.5284 4.08517 2.52832 3.99707C2.52832 3.78805 2.69077 3.68866 2.85254 3.73047C2.93717 3.74072 3.11899 3.86089 3.12988 3.68848C3.16119 3.39166 2.69086 3.40142 2.78613 2.92285C2.84248 2.68205 3.10884 2.55085 3.52051 2.49902C3.56252 2.45706 3.67284 2.35784 3.72363 2.27441C3.959 1.8948 4.19286 1.7958 4.33008 1.87305C4.50074 1.95658 4.58544 2.02999 4.7207 2.10156C4.83067 2.15975 4.94535 2.1908 5.02441 2.27441C5.20067 2.49904 5.03364 2.84906 4.93457 3.06348C4.8728 3.18785 4.72108 3.47484 4.78809 3.68848C4.86169 3.94367 5.28863 4.10562 5.54492 4.1582C5.55583 4.1582 5.57056 4.16406 5.58691 4.16406V4.06543C5.50876 3.93366 5.44626 3.77754 5.39355 3.63574C5.221 3.17698 5.47708 2.99035 5.86328 2.90137C5.90509 2.87032 5.95589 2.8591 6.01953 2.87988H6.03125L6.04004 2.95801L6.09863 2.94238L6.08789 2.84863H6.1084C6.06135 2.81688 6.0401 2.76553 6.04004 2.71289C6.04004 2.65666 6.06151 2.61381 6.08789 2.58301H6.03125L6.05078 2.56152C6.06079 2.54079 6.08753 2.52097 6.1084 2.48828C6.12837 2.47826 6.13867 2.45729 6.13867 2.44727L6.05859 2.50977C6.04611 2.5204 6.03584 2.53094 6.03125 2.54102L5.99805 2.56152V2.13477L6.03125 2.16016C6.04038 2.17019 6.07231 2.19091 6.09863 2.21289C6.11857 2.23361 6.12868 2.23413 6.13867 2.24414C6.13867 2.23413 6.12832 2.22312 6.1084 2.20117C6.0875 2.18137 6.06076 2.14919 6.05078 2.13477L6.03125 2.10156H6.45801L6.43652 2.13477C6.41565 2.14917 6.39498 2.18136 6.375 2.20117C6.365 2.22316 6.34879 2.23412 6.33789 2.24414C6.34879 2.23412 6.37477 2.23367 6.38477 2.21289C6.41551 2.19099 6.43631 2.17021 6.45801 2.16016L6.47949 2.13477V2.56152L6.45801 2.54102C6.43631 2.52105 6.41548 2.49944 6.38477 2.47852C6.37477 2.46849 6.34879 2.45729 6.33789 2.44727C6.34879 2.45729 6.365 2.47826 6.375 2.48828C6.39492 2.52087 6.4157 2.54083 6.43652 2.56152L6.45801 2.58301H6.39453C6.42634 2.61381 6.43652 2.65666 6.43652 2.71289C6.43647 2.76547 6.41548 2.81687 6.38477 2.84863H6.39453L6.38477 2.94238L6.43652 2.95801L6.44824 2.87988H6.45801C6.52161 2.85911 6.57155 2.87033 6.61426 2.90137C7.00047 2.99035 7.25657 3.17695 7.08398 3.63574C7.03128 3.77754 6.96878 3.93366 6.89062 4.06543V4.13281C7.27671 4.00744 7.97616 3.58436 8.1582 3.32812C8.17896 3.30822 8.19025 3.28745 8.2002 3.27734V2.99023C8.05388 2.76581 7.9342 2.4879 7.85059 2.2334C7.60543 1.57036 7.96719 1.29506 8.53418 1.17871C8.59768 1.13798 8.66932 1.11685 8.7627 1.14746L8.77344 1.25195L8.89355 1.24219L8.88281 1.10742C8.9137 1.11744 8.93613 1.11719 8.95703 1.11719C8.87345 1.07538 8.82129 0.97475 8.82129 0.871094C8.82142 0.798568 8.85241 0.709687 8.91406 0.667969H8.82129C8.86308 0.616161 8.96746 0.506436 8.97754 0.433594C8.91393 0.453641 8.81109 0.552906 8.75293 0.606445V0.0634766C8.81109 0.104304 8.91393 0.208727 8.97754 0.21875C8.9673 0.157858 8.86307 0.051775 8.82129 0H9.36328ZM8.92578 15.9336C8.87307 16.3406 8.71013 16.9773 8.47656 17.499C8.31025 17.8745 8.06469 18.7444 8.49805 18.9688C8.45635 18.6459 8.54448 17.9253 8.66895 17.4365C8.76077 17.1066 9.06025 16.2426 8.92578 15.9336ZM9.25391 15.9336C9.12037 16.2425 9.41879 17.1065 9.50977 17.4365C9.64058 17.9253 9.72423 18.6459 9.68164 18.9688C10.1141 18.7443 9.86943 17.8743 9.70312 17.499C9.46775 16.9773 9.30571 16.3406 9.25391 15.9336ZM6.99023 18.0303C6.8594 18.2556 7.04165 18.4169 7.29785 18.417C7.29785 18.3289 7.29766 18.2976 7.30762 18.1924C7.1923 18.1796 7.05741 18.1318 6.99023 18.0303ZM11.1895 18.0303C11.1195 18.1366 10.9804 18.1816 10.8613 18.1924C10.8822 18.2977 10.8818 18.3288 10.8818 18.417C11.1381 18.417 11.3203 18.2557 11.1895 18.0303ZM8.49805 16.2979C8.19096 16.6586 7.57582 17.018 7.42383 17.2949C7.35024 17.4367 7.30801 17.7125 7.53223 17.7344C7.65669 17.4044 7.80847 17.2114 8.00195 16.9463C8.17008 16.7382 8.36173 16.5296 8.49805 16.2979ZM9.68164 16.2979C9.81886 16.5296 10.01 16.7419 10.1836 16.9463C10.3708 17.2115 10.5212 17.4044 10.6475 17.7344C10.8719 17.7126 10.8295 17.4367 10.7559 17.2949C10.6049 17.0179 9.98876 16.6586 9.68164 16.2979ZM2.76465 11.0195C2.43486 11.244 2.05386 11.602 1.80859 11.6602C1.77329 11.6692 1.7337 11.6773 1.7002 11.6836C1.69839 11.698 1.69669 11.7144 1.68945 11.7344V11.7539C1.77923 11.7958 1.82012 11.9172 1.74121 12L2.97852 14.5508C3.11846 14.5936 3.14986 14.7235 3.12988 14.8281C3.14125 14.8284 3.20392 14.8383 3.23438 14.8848C3.16167 14.8948 3.16148 14.9579 3.19238 15.0107C3.24437 15.094 3.39529 15.0947 3.40527 15.3398C3.51978 15.3907 3.55157 15.5426 3.50977 15.668C3.57117 15.724 3.62291 15.8352 3.625 15.8398C3.67325 15.7658 3.78629 15.7867 3.82812 15.8174C3.98989 15.6675 4.19299 15.7458 4.2666 15.9902C4.35035 16.2465 4.66805 16.3511 4.85156 16.3203C5.07604 16.2885 5.46619 16.1378 5.68066 16.0332C5.81505 15.9643 5.90221 15.9158 5.97852 15.8643C6.00304 15.766 5.98322 15.6453 5.96777 15.5938C5.92687 15.6463 5.86273 15.705 5.76367 15.7559C5.75367 15.705 5.75423 15.6463 5.73242 15.6035C5.63972 15.7453 5.48769 15.8176 5.30957 15.8076C5.41408 15.715 5.46587 15.4686 5.41406 15.2549C5.26322 15.511 4.68878 15.563 4.58496 15.1045C4.79944 15.2045 4.93471 15.0939 4.97559 14.9795C5.03352 14.7958 4.82002 14.3512 5.02441 14.0078C5.16979 13.7525 5.34154 13.596 5.74219 13.5332C5.71143 13.4861 5.70131 13.4435 5.69043 13.3721C6.06119 13.5075 6.38487 13.4025 6.53027 13.1055C6.45855 13.1362 6.3386 13.1484 6.24414 13.1484C6.5721 12.8812 6.55173 12.1243 6.31641 11.7344C6.28563 11.7137 6.27566 11.6917 6.24414 11.6816C6.17142 11.828 5.95619 11.8282 5.85352 11.9482C5.80626 11.9055 5.7849 11.8948 5.74219 11.8584C5.74219 11.8584 5.73217 12.4786 5.69043 12.7344C5.64955 13.0215 5.37252 12.991 5.2207 13.1162C5.06533 12.9327 4.767 12.9428 4.80957 12.625C4.85138 12.3079 4.9139 12.021 4.9248 11.8057C4.83032 11.9992 4.64697 12.7243 4.57422 12.9326C4.4588 13.2407 4.15745 13.1485 3.99023 13.2686C3.8803 13.0542 3.60506 12.9912 3.71387 12.668C3.74477 12.5844 4.20482 11.6299 4.2666 11.4463C4.10576 11.6815 3.67302 12.5214 3.53125 12.7568C3.38588 13.0011 3.10887 12.8817 2.90625 12.9434C2.87444 12.7671 2.59711 12.5629 2.78613 12.2559C3.04065 11.8485 3.60493 11.1391 3.65039 11.04C3.53152 11.1489 2.64142 12.2523 2.57617 12.3174C2.37262 12.4846 2.1007 12.3763 1.91895 12.3652L1.87305 12.2656C1.8403 12.0875 1.75626 11.8896 1.95605 11.6914C2.1694 11.4882 2.6477 11.1397 2.76465 11.0195ZM9.08984 7.79785C8.94263 7.92057 8.42126 8.34056 7.94238 8.50684C7.37711 8.70315 6.6709 8.74219 6.6709 8.74219C6.6709 8.74219 6.5093 9.09556 6.5293 9.91895C6.54941 10.7424 6.91156 12.4647 7.47656 13.5615C8.0391 14.6539 9.06737 15.545 9.08984 15.541C9.10165 15.5537 10.1379 14.6592 10.7031 13.5615C11.2673 12.4647 11.6303 10.7424 11.6504 9.91895C11.6713 9.09556 11.5098 8.74219 11.5098 8.74219C11.5098 8.74219 10.8036 8.70307 10.2393 8.50684C9.75941 8.34059 9.23526 7.92058 9.08984 7.79785ZM7.83398 9.18652L8.43457 9.27637C8.45541 9.27905 8.47285 9.29255 8.47656 9.3125C8.48382 9.33157 8.47653 9.3535 8.46289 9.36719L8.36621 9.45312L9.05664 9.92871L9.75 9.45312L9.65137 9.36719C9.63698 9.35349 9.63219 9.33147 9.63672 9.3125C9.64223 9.29268 9.65988 9.27913 9.67969 9.27637L10.2803 9.18652H10.2881C10.3052 9.18657 10.3211 9.19379 10.3311 9.20801C10.342 9.22537 10.345 9.24631 10.335 9.26465L10.0439 9.79785C10.0348 9.81414 10.018 9.82614 9.99902 9.82617H9.99707C9.97436 9.8242 9.95836 9.81105 9.9502 9.79199L9.90234 9.67188L9.29297 10.0908L9.44824 10.1982C9.60354 10.0903 9.70639 10.0115 9.71094 10.0098C9.71993 10.0035 9.73149 9.99817 9.74316 9.99805C9.75499 9.99805 9.77027 10.0039 9.78027 10.0137L9.84863 10.084C9.85946 10.0939 9.86516 10.1085 9.86523 10.1221C9.86523 10.1373 9.85825 10.1502 9.84668 10.1602C9.83668 10.1692 9.75937 10.2355 9.63672 10.3281L10.0244 10.5947C10.039 10.6047 10.0479 10.6206 10.0479 10.6377C10.0478 10.6559 10.0389 10.6717 10.0244 10.6816L9.8291 10.8145H9.83105C9.89096 10.8308 9.94851 10.8398 10.0039 10.8398C10.2626 10.8396 10.4056 10.6437 10.4492 10.4746C10.5063 10.251 10.4306 9.73096 10.4297 9.72559C10.4263 9.704 10.4371 9.6828 10.4561 9.67285C10.5614 9.61207 10.6678 9.58011 10.7686 9.58008C10.9592 9.58008 11.0705 9.68986 11.0791 9.69922C11.0864 9.70752 11.0919 9.71973 11.0938 9.73145C11.0965 9.76323 11.1566 10.5156 10.8076 10.8955C10.6795 11.0363 10.5102 11.1074 10.3066 11.1074C10.2713 11.1074 10.2333 11.1062 10.1953 11.1006C9.9981 11.0771 9.8035 11.0243 9.61719 10.958L9.29395 11.1768L10.0088 11.6602C10.0233 11.6721 10.0322 11.6877 10.0322 11.7051C10.0321 11.722 10.0232 11.7381 10.0088 11.748L9.29102 12.2441L9.90234 12.668L9.9502 12.5488C9.95837 12.5315 9.97438 12.5176 9.99707 12.5166L9.99902 12.5156C10.0179 12.5157 10.0348 12.5269 10.0439 12.543L10.335 13.0781C10.3441 13.0955 10.342 13.1174 10.3311 13.1328C10.3211 13.1474 10.3053 13.1562 10.2881 13.1562H10.2803L9.67969 13.0664C9.65804 13.0627 9.64215 13.0485 9.63672 13.0293C9.63132 13.0097 9.63626 12.989 9.65137 12.9746L9.75098 12.8857L9.05664 12.4072L8.36426 12.8857L8.46289 12.9746C8.47643 12.989 8.48378 13.0096 8.47656 13.0293C8.47292 13.0486 8.45547 13.0627 8.43457 13.0664L7.83398 13.1562H7.82617C7.80891 13.1562 7.79137 13.1475 7.7832 13.1328C7.77152 13.1174 7.77024 13.0954 7.7793 13.0781L8.06836 12.543C8.07838 12.5267 8.09718 12.5156 8.11621 12.5156C8.11774 12.5156 8.11826 12.5157 8.11914 12.5166C8.13894 12.5178 8.15694 12.5316 8.16504 12.5488L8.21094 12.668L8.82324 12.2441L8.10547 11.748C8.08952 11.7381 8.08217 11.7219 8.08203 11.7051C8.08203 11.6879 8.09117 11.6721 8.10547 11.6602L8.82129 11.1768L8.49805 10.958C8.31102 11.0242 8.1178 11.0771 7.91992 11.1006C7.88266 11.1062 7.84299 11.1074 7.80664 11.1074C7.6032 11.1074 7.43564 11.0363 7.30664 10.8955C6.95898 10.5156 7.01777 9.76359 7.02051 9.73145C7.02051 9.71971 7.02606 9.70753 7.03516 9.69922C7.04129 9.69225 7.15394 9.58024 7.34668 9.58008C7.44664 9.58008 7.55293 9.61198 7.66016 9.67285C7.67898 9.68283 7.68893 9.70408 7.68555 9.72559C7.68555 9.73096 7.60799 10.251 7.66602 10.4746C7.70965 10.6438 7.85331 10.8398 8.1123 10.8398C8.16684 10.8398 8.22324 10.8308 8.2832 10.8145C8.28469 10.8145 8.28589 10.8149 8.28613 10.8145L8.08984 10.6816C8.07628 10.6717 8.06736 10.6559 8.06641 10.6377C8.06641 10.6206 8.07615 10.6047 8.08887 10.5947L8.47852 10.3281C8.35493 10.2355 8.27751 10.1692 8.2666 10.1602C8.25675 10.1502 8.2509 10.1373 8.25 10.1221C8.25008 10.1085 8.25475 10.0939 8.26465 10.084L8.33496 10.0137C8.34492 10.004 8.35773 9.99807 8.37305 9.99805C8.38395 9.99805 8.39527 10.0034 8.40527 10.0098C8.41133 10.0147 8.51319 10.0925 8.66699 10.1982L8.82227 10.0908L8.21191 9.67188L8.16504 9.79199C8.15694 9.81092 8.13893 9.82407 8.11914 9.82617H8.11621C8.09712 9.82617 8.07836 9.81423 8.06836 9.79785L7.7793 9.26465C7.77023 9.24634 7.7714 9.22535 7.7832 9.20801C7.79137 9.19358 7.80891 9.18652 7.82617 9.18652H7.83398ZM8.5127 11.7051L9.05664 12.083L9.60254 11.7051L9.05664 11.3359L8.5127 11.7051ZM1.09375 11.3633C1.05286 11.3371 1.01061 11.3376 0.969727 11.3857L1.07422 11.4463C1.094 11.4262 1.09375 11.3952 1.09375 11.3633ZM0.870117 10.8516C0.850209 10.8723 0.827653 10.8827 0.797852 10.8828C0.786949 10.9454 0.786976 11.0195 0.850586 11.0293C0.860544 11.0195 0.860183 11.0088 0.870117 11.0088C0.86021 10.9662 0.860517 10.9254 0.850586 10.8828L0.879883 10.8623L0.870117 10.8516ZM8.79297 10.8359L9.05664 11.0156L9.32324 10.8359C9.22965 10.7922 9.14116 10.7466 9.05664 10.7012C8.97306 10.7466 8.88567 10.7922 8.79297 10.8359ZM1.33203 10.7842C1.33545 10.7877 1.3371 10.7913 1.33887 10.7939H1.38086C1.38449 10.7876 1.38679 10.7808 1.3877 10.7734C1.37054 10.7787 1.35095 10.7796 1.33203 10.7842ZM1.76758 10.6953V10.709C1.81756 10.688 1.882 10.6604 1.93652 10.6387C1.88291 10.6577 1.81847 10.6762 1.76758 10.6953ZM8.49805 10.6367L8.58984 10.6992C8.67424 10.6611 8.7583 10.6196 8.8418 10.5752C8.79546 10.5461 8.7518 10.5176 8.71094 10.4912L8.49805 10.6367ZM9.27246 10.5752C9.35511 10.6197 9.44091 10.6611 9.52539 10.6992L9.61719 10.6367L9.40332 10.4912C9.36159 10.5176 9.3178 10.5462 9.27246 10.5752ZM8.9043 10.3574C8.95334 10.3882 9.00492 10.4204 9.05664 10.4521C9.11024 10.4204 9.16183 10.3882 9.20996 10.3574L9.05664 10.2529L8.9043 10.3574ZM8.7334 3.49023C8.46621 3.76649 7.87238 4.09529 7.28711 4.2207C7.627 4.2207 8.22165 4.18908 8.2998 4.10547C8.27981 4.31889 7.81964 4.56143 7.52246 4.62793C7.76693 4.65873 8.00233 4.62732 8.19043 4.53906C8.08592 4.69088 7.96653 4.80582 7.7666 4.87402C7.98015 5.1295 8.39415 5.29571 8.82129 5.25391C8.72315 5.37927 8.53402 5.45749 8.3623 5.43652C8.74214 6.0435 9.02233 6.6673 9.08594 7.39062L9.08691 7.3877L9.08887 7.38867C9.15519 6.66699 9.43854 6.04355 9.81934 5.43652C9.65121 5.45755 9.45705 5.37932 9.35254 5.25391C9.77587 5.29569 10.2029 5.12932 10.4111 4.87402C10.2132 4.8058 10.0946 4.69081 9.98926 4.53906C10.1837 4.62726 10.412 4.65873 10.6582 4.62793C10.361 4.56143 9.90757 4.31889 9.88574 4.10547C9.95938 4.18908 10.5527 4.2207 10.8926 4.2207C10.3073 4.09529 9.72057 3.77235 9.45703 3.49414C9.23997 3.50585 8.95499 3.5039 8.7334 3.49023Z" fill="var(--fill-0, #9099AB)"/>
<path id="Vector_6" d="M32.5126 11.9134C32.2836 11.9134 32.0609 11.918 31.8447 11.9261C31.6284 11.9344 31.4602 11.9552 31.3411 11.9889V15.3648C31.3839 15.3812 31.4538 15.3922 31.5521 15.3959C31.6492 15.4003 31.7511 15.4066 31.8575 15.4149C31.9628 15.423 32.0655 15.4277 32.1628 15.4277H32.3853C32.6906 15.4277 32.9925 15.4049 33.2896 15.3585C33.5869 15.3123 33.8558 15.2223 34.0985 15.0886C34.3401 14.9551 34.5357 14.7669 34.6838 14.5243C34.8317 14.2808 34.9063 13.9672 34.9063 13.5829C34.9063 13.2474 34.8347 12.9722 34.6902 12.7541C34.5457 12.5368 34.3592 12.3651 34.1303 12.2397C33.9003 12.1143 33.6441 12.0287 33.3595 11.9825C33.0752 11.9361 32.7935 11.9134 32.5126 11.9134ZM30.0679 10.9963C30.4251 10.9201 30.8131 10.8673 31.2331 10.8374C31.6538 10.8074 32.0672 10.7929 32.4745 10.7929C32.908 10.7929 33.3468 10.8311 33.7922 10.9074C34.2384 10.9836 34.6437 11.1237 35.0082 11.3271C35.3735 11.5317 35.6725 11.8134 35.9059 12.1742C36.1396 12.5351 36.256 13.0003 36.256 13.5682C36.256 14.1036 36.1497 14.5598 35.9377 14.937C35.7253 15.315 35.4434 15.623 35.0909 15.8601C34.7391 16.0982 34.3357 16.2718 33.8812 16.3828C33.4277 16.4928 32.9588 16.5481 32.4745 16.5481C32.4237 16.5481 32.3454 16.5454 32.2391 16.5417C32.1327 16.5373 32.0227 16.5327 31.9083 16.529C31.7937 16.5246 31.6829 16.5183 31.5775 16.5099C31.4712 16.5009 31.392 16.4928 31.3411 16.4845V19.8199H30.0679V10.9963Z" fill="var(--fill-0, #A5ACBD)"/>
<path id="Vector_7" d="M37.8211 16.4857C37.8211 16.7991 37.8565 17.1074 37.9272 17.4081C37.9981 17.7098 38.1137 17.9797 38.2726 18.2168C38.4317 18.4549 38.6378 18.6459 38.8887 18.7894C39.1405 18.9339 39.4505 19.0067 39.8194 19.0067C41.1261 19.0067 41.7805 18.166 41.7805 16.4857C41.7805 16.1539 41.7451 15.8359 41.6732 15.5305C41.6023 15.2252 41.4889 14.9553 41.3344 14.7218C41.1789 14.4881 40.9762 14.3001 40.7244 14.1556C40.4729 14.0111 40.1712 13.9393 39.8194 13.9393C39.1659 13.9393 38.6689 14.1493 38.3298 14.569C37.99 14.9888 37.8211 15.6278 37.8211 16.4857ZM36.5478 16.4857C36.5478 15.9342 36.6195 15.4396 36.764 15.0017C36.9084 14.5646 37.1202 14.1938 37.4001 13.8884C37.681 13.5821 38.0218 13.3493 38.4254 13.1878C38.8288 13.0269 39.2896 12.946 39.8067 12.946C40.3501 12.946 40.8254 13.035 41.2324 13.2132C41.6405 13.3912 41.9795 13.6393 42.2512 13.9583C42.523 14.2764 42.7247 14.6499 42.8565 15.078C42.9875 15.5068 43.0538 15.976 43.0538 16.4857C43.0538 17.0292 42.9792 17.5171 42.831 17.9498C42.6822 18.3823 42.4702 18.7512 42.194 19.0576C41.9187 19.3629 41.5789 19.5964 41.1752 19.7572C40.7726 19.9191 40.3164 20 39.8067 20C39.2468 20 38.7625 19.91 38.3552 19.7318C37.9482 19.5538 37.6101 19.3074 37.3429 18.993C37.0757 18.6796 36.8767 18.3087 36.7449 17.8797C36.6131 17.4509 36.5478 16.9864 36.5478 16.4857Z" fill="var(--fill-0, #A5ACBD)"/>
<path id="Vector_8" d="M49.4712 19.3629C49.174 19.5756 48.8258 19.7345 48.4271 19.8401C48.0281 19.9462 47.6074 20 47.1666 20C46.6068 20 46.1286 19.9144 45.7342 19.7445C45.3389 19.5756 45.0191 19.3375 44.7727 19.0321C44.5265 18.7258 44.3483 18.3569 44.2383 17.9242C44.1275 17.4917 44.073 17.0118 44.073 16.4857C44.073 15.357 44.3466 14.4844 44.8937 13.8684C45.4416 13.254 46.2286 12.946 47.2556 12.946C47.7054 12.946 48.0961 12.9861 48.4271 13.0667C48.7579 13.1477 49.0549 13.2467 49.3184 13.3657L49.0151 14.3209C48.787 14.2018 48.5396 14.1092 48.2743 14.041C48.0091 13.973 47.7198 13.9393 47.4081 13.9393C46.0332 13.9393 45.3462 14.7881 45.3462 16.4857C45.3462 16.8084 45.3834 17.1201 45.4597 17.4208C45.5352 17.7225 45.658 17.9897 45.8269 18.2232C45.9951 18.4569 46.2168 18.6459 46.4904 18.7903C46.7649 18.9339 47.1001 19.0057 47.4974 19.0057C47.8509 19.0057 48.1606 18.9576 48.4271 18.8595C48.6924 18.7622 48.9141 18.6459 49.0913 18.5094L49.4712 19.3629Z" fill="var(--fill-0, #A5ACBD)"/>
<path id="Vector_9" d="M55.4025 19.3629C55.1062 19.5756 54.7581 19.7345 54.3591 19.8401C53.9601 19.9462 53.5394 20 53.0986 20C52.538 20 52.0608 19.9144 51.6655 19.7445C51.2711 19.5756 50.9511 19.3375 50.7049 19.0321C50.4585 18.7258 50.2805 18.3569 50.1696 17.9242C50.0598 17.4917 50.0043 17.0118 50.0043 16.4857C50.0043 15.357 50.2786 14.4844 50.8257 13.8684C51.3728 13.254 52.1598 12.946 53.1878 12.946C53.6376 12.946 54.0283 12.9861 54.3591 13.0667C54.6899 13.1477 54.9871 13.2467 55.2507 13.3657L54.9463 14.3209C54.719 14.2018 54.4728 14.1092 54.2065 14.041C53.941 13.973 53.6521 13.9393 53.3404 13.9393C51.9655 13.9393 51.2775 14.7881 51.2775 16.4857C51.2775 16.8084 51.3156 17.1201 51.3909 17.4208C51.4675 17.7225 51.5902 17.9897 51.7581 18.2232C51.9273 18.4569 52.1491 18.6459 52.4226 18.7903C52.6969 18.9339 53.0323 19.0057 53.4294 19.0057C53.7829 19.0057 54.0929 18.9576 54.3591 18.8595C54.6246 18.7622 54.8463 18.6459 55.0236 18.5094L55.4025 19.3629Z" fill="var(--fill-0, #A5ACBD)"/>
<path id="Vector_10" d="M61.2083 15.9957L61.3875 14.6716H61.2467L60.6223 15.9194L57.4906 19.8153H56.5872V13.1312H57.7585V17.078L57.6685 18.2495H57.8096L58.3949 17.1161L61.4637 13.1312H62.3798V19.8153H61.2083V15.9957Z" fill="var(--fill-0, #A5ACBD)"/>
<path id="Vector_11" d="M68.7335 15.9957L68.9117 14.6716H68.7716L68.1475 15.9194L65.0158 19.8153H64.1124V13.1312H65.283V17.078L65.1937 18.2495H65.3338L65.9191 17.1161L68.988 13.1312H69.905V19.8153H68.7335V15.9957Z" fill="var(--fill-0, #A5ACBD)"/>
<path id="Vector_12" d="M37.2575 3.45307L37.394 2.13707H37.3258L36.8077 3.34037L34.3258 7.30084H33.985L31.3533 3.32766L30.8624 2.13707H30.7944L30.9851 3.44036V9.34366H29.9209V0.569512H30.767L33.7533 5.05706L34.2031 6.03471H34.2305L34.6529 5.03237L37.503 0.569512H38.3899V9.34366H37.2575V3.45307Z" fill="var(--fill-0, #A5ACBD)" stroke="var(--stroke-0, #A5ACBD)" stroke-miterlimit="10"/>
<path id="Vector_13" d="M44.8531 5.63626L44.894 4.85932H44.8531L44.2943 5.66095L41.2261 9.3459H40.5981V3.07907H41.6897V6.90214L41.6486 7.64192H41.7034L42.2348 6.864L45.303 3.07907H45.9445V9.3459H44.8531V5.63626Z" fill="var(--fill-0, #A5ACBD)" stroke="var(--stroke-0, #A5ACBD)" stroke-miterlimit="10"/>
<path id="Vector_14" d="M52.2154 6.57601H49.1338V9.3459H48.0422V3.07907H49.1338V5.69909H52.2154V3.07907H53.306V9.3459H52.2154V6.57601Z" fill="var(--fill-0, #A5ACBD)" stroke="var(--stroke-0, #A5ACBD)" stroke-miterlimit="10"/>
<path id="Vector_15" d="M61.5303 10.9382H60.7942L60.5888 9.34614H55.4077V3.07907H56.4983V8.46897H59.4574V3.07907H60.5478V8.46897H61.5303V10.9382Z" fill="var(--fill-0, #A5ACBD)" stroke="var(--stroke-0, #A5ACBD)" stroke-miterlimit="10"/>
<path id="Vector_16" d="M67.1359 5.63626L67.1767 4.85932H67.1359L66.577 5.66095L63.5079 9.3459H62.8808V3.07907H63.9724V6.90214L63.9313 7.64192H63.9858L64.5175 6.864L67.5857 3.07907H68.2262V9.3459H67.1359V5.63626Z" fill="var(--fill-0, #A5ACBD)" stroke="var(--stroke-0, #A5ACBD)" stroke-miterlimit="10"/>
<path id="Vector_17" d="M75.0317 3.80292C74.9227 3.80292 74.8244 3.80487 74.7381 3.80928C74.6518 3.81392 74.5455 3.83201 74.4183 3.86575V8.62858C74.509 8.64593 74.611 8.65595 74.7254 8.66036C74.8391 8.66402 74.9635 8.66598 75.0999 8.66598C75.6815 8.66598 76.1204 8.44498 76.4157 8.00248C76.711 7.559 76.8592 6.9202 76.8592 6.0841C76.8592 5.37439 76.7247 4.81626 76.4568 4.41092C76.1886 4.00559 75.7143 3.80292 75.0317 3.80292ZM72.7271 8.66598C72.8361 8.66598 72.9451 8.66231 73.0542 8.654C73.1632 8.64593 73.2813 8.62857 73.4087 8.60413V3.85303C73.3004 3.83665 73.1977 3.82394 73.1023 3.81563C73.007 3.80756 72.8906 3.80292 72.7542 3.80292C72.1907 3.80292 71.7519 3.99752 71.4384 4.3855C71.1248 4.77445 70.9676 5.38246 70.9676 6.20951C70.9676 6.56033 71.0021 6.88646 71.0703 7.18741C71.1385 7.48811 71.2456 7.74994 71.391 7.9707C71.5365 8.19243 71.7201 8.36332 71.9428 8.48409C72.1653 8.60584 72.4271 8.66598 72.7271 8.66598ZM73.3959 9.39304C73.2405 9.44389 73.0796 9.47299 72.9114 9.48105C72.7425 9.48937 72.5907 9.49377 72.4545 9.49377C71.6274 9.49377 70.9903 9.22656 70.5449 8.6914C70.0997 8.15698 69.877 7.3292 69.877 6.20951C69.877 5.1397 70.1224 4.33367 70.6131 3.79021C71.104 3.24772 71.8137 2.97611 72.7405 2.97611C72.995 2.97611 73.2131 2.99224 73.3959 3.02598V0.569512H74.4318V3.03869C74.5956 3.01327 74.7408 2.99689 74.8682 2.98784C74.9953 2.97953 75.118 2.97611 75.2361 2.97611C76.1358 2.97611 76.8139 3.21594 77.2682 3.69657C77.7226 4.17745 77.9498 4.97272 77.9498 6.0841C77.9498 6.6102 77.8889 7.08473 77.7661 7.50718C77.6434 7.92889 77.4635 8.28607 77.2273 8.5787C76.9909 8.87134 76.702 9.09674 76.3612 9.25565C76.0204 9.41383 75.627 9.49377 75.1816 9.49377C75.0999 9.49377 74.9789 9.48741 74.8207 9.4747C74.6608 9.46199 74.5318 9.43925 74.4318 9.40576V11.8502H73.3959V9.39304Z" fill="var(--fill-0, #A5ACBD)"/>
<path id="Vector_18" d="M75.0317 3.80291C74.9227 3.80291 74.8244 3.80487 74.7381 3.80927C74.6518 3.81392 74.5455 3.83201 74.4181 3.86575V8.62857C74.509 8.64593 74.611 8.65595 74.7254 8.66036C74.8391 8.66402 74.9635 8.66573 75.0997 8.66573C75.6815 8.66573 76.1204 8.44498 76.4157 8.00248C76.711 7.559 76.8592 6.9202 76.8592 6.0841C76.8592 5.37415 76.7247 4.81626 76.4565 4.41092C76.1886 4.00558 75.714 3.80291 75.0317 3.80291ZM72.7271 8.66573C72.8361 8.66573 72.9451 8.66231 73.0542 8.654C73.1632 8.64593 73.2813 8.62857 73.4084 8.60413V3.85303C73.3004 3.83665 73.1977 3.82394 73.1023 3.81563C73.0067 3.80756 72.8906 3.80291 72.7542 3.80291C72.1907 3.80291 71.7519 3.99751 71.4382 4.38549C71.1248 4.77445 70.9676 5.38246 70.9676 6.20951C70.9676 6.56009 71.0021 6.88646 71.0703 7.18716C71.1385 7.48811 71.2456 7.74969 71.391 7.9707C71.5365 8.19243 71.7201 8.36332 71.9426 8.48409C72.1653 8.60584 72.4271 8.66573 72.7271 8.66573ZM73.3957 9.3928C73.2405 9.44389 73.0796 9.47274 72.9114 9.48105C72.7425 9.48912 72.5907 9.49376 72.4542 9.49376C71.6274 9.49376 70.9903 9.22656 70.5449 8.6914C70.0997 8.15698 69.877 7.32896 69.877 6.20951C69.877 5.1397 70.1224 4.33367 70.6131 3.7902C71.1038 3.24772 71.8137 2.97586 72.7405 2.97586C72.995 2.97586 73.2131 2.99224 73.3957 3.02598V0.569512H74.4318V3.03869C74.5953 3.01327 74.7408 2.99689 74.8682 2.98784C74.9953 2.97953 75.118 2.97586 75.2361 2.97586C76.1358 2.97586 76.8137 3.21594 77.2682 3.69657C77.7226 4.17745 77.9498 4.97248 77.9498 6.0841C77.9498 6.6102 77.8889 7.08448 77.7661 7.50718C77.6434 7.92889 77.4635 8.28607 77.2273 8.5787C76.9909 8.87134 76.702 9.0965 76.3612 9.25565C76.0204 9.41382 75.6268 9.49376 75.1816 9.49376C75.0997 9.49376 74.9789 9.48741 74.8207 9.47469C74.6608 9.46198 74.5318 9.43925 74.4318 9.40551V11.8502H73.3957V9.3928Z" stroke="var(--stroke-0, #A5ACBD)" stroke-miterlimit="10"/>
<path id="Vector_19" d="M82.3548 3.80807C81.8913 3.80807 81.5251 3.91882 81.2569 4.14055C80.989 4.36131 80.8 4.69771 80.6917 5.14925V8.25748C80.8552 8.37458 81.0415 8.46455 81.2506 8.52738C81.4596 8.58997 81.7368 8.62101 82.0823 8.62101C82.7093 8.62101 83.2073 8.40637 83.5753 7.9756C83.9434 7.54484 84.1278 6.91239 84.1278 6.07629C84.1278 5.73379 84.096 5.42282 84.0324 5.1429C83.9689 4.86297 83.8662 4.62485 83.7254 4.42854C83.5845 4.23247 83.4027 4.07968 83.1799 3.97064C82.9575 3.86259 82.6819 3.80807 82.3548 3.80807ZM79.6004 3.08101H80.3502L80.5545 3.8335H80.6091C80.8181 3.54086 81.089 3.31717 81.4207 3.16266C81.7522 3.00815 82.1321 2.9309 82.5592 2.9309C83.4682 2.9309 84.1461 3.17733 84.5913 3.66994C85.0367 4.16329 85.2594 4.96932 85.2594 6.08901C85.2594 6.61511 85.1849 7.08963 85.0348 7.51208C84.8839 7.9338 84.6732 8.29097 84.4006 8.58361C84.1278 8.87624 83.798 9.10165 83.4117 9.2608C83.0254 9.41873 82.5957 9.49868 82.1231 9.49868C81.7869 9.49868 81.5205 9.4796 81.3251 9.44244C81.1298 9.40431 80.9181 9.33977 80.6917 9.24785V11.8552H79.6004V3.08101Z" fill="var(--fill-0, #A5ACBD)"/>
<path id="Vector_20" d="M82.3548 3.81246C81.8913 3.81246 81.5251 3.92345 81.2569 4.14519C80.989 4.36595 80.8 4.7021 80.6917 5.15388V8.26187C80.8552 8.37922 81.0415 8.46918 81.2506 8.53177C81.4596 8.5946 81.7368 8.6254 82.0823 8.6254C82.7093 8.6254 83.2073 8.411 83.5753 7.98024C83.9434 7.54948 84.1278 6.91678 84.1278 6.08093C84.1278 5.73817 84.096 5.42745 84.0324 5.14753C83.9689 4.8676 83.8662 4.62949 83.7254 4.43318C83.5845 4.23686 83.4027 4.08431 83.1799 3.97503C82.9575 3.86698 82.6819 3.81246 82.3548 3.81246ZM79.6004 3.08539H80.3502L80.5545 3.83788H80.6091C80.8181 3.54525 81.089 3.3218 81.4207 3.16729C81.7522 3.01279 82.1321 2.93553 82.5592 2.93553C83.4682 2.93553 84.1461 3.18172 84.5913 3.67433C85.0367 4.16792 85.2594 4.97395 85.2594 6.09364C85.2594 6.61974 85.1849 7.09402 85.0348 7.51672C84.8839 7.93843 84.6732 8.29561 84.4006 8.58824C84.1278 8.88088 83.798 9.10604 83.4117 9.26519C83.0254 9.42336 82.5957 9.5033 82.1231 9.5033C81.7869 9.5033 81.5205 9.48423 81.3251 9.44683C81.1298 9.40869 80.9181 9.34415 80.6917 9.25247V11.8598H79.6004V3.08539Z" stroke="var(--stroke-0, #A5ACBD)" stroke-miterlimit="10"/>
<path id="Vector_21" d="M92.7875 3.07907H93.8781V9.34589H92.7875V3.07907ZM88.0691 8.46897C88.4053 8.51908 88.728 8.54451 89.038 8.54451C89.6103 8.54451 90.0103 8.44183 90.2374 8.23721C90.4647 8.03185 90.5782 7.7419 90.5782 7.36566C90.5782 7.03122 90.4665 6.75594 90.2437 6.53885C90.0213 6.32151 89.633 6.21248 89.0778 6.21248C88.9233 6.21248 88.7551 6.21713 88.5735 6.22519C88.3919 6.23351 88.2237 6.25893 88.0691 6.30073V8.46897ZM88.0691 5.4727C88.2872 5.43994 88.4962 5.41647 88.6972 5.40449C88.8962 5.39178 89.0869 5.38543 89.2695 5.38543C89.733 5.38543 90.122 5.43359 90.4347 5.52991C90.7491 5.6255 91.0009 5.75727 91.1918 5.92449C91.3835 6.09171 91.5169 6.28973 91.5942 6.51978C91.6715 6.74959 91.7106 6.99406 91.7106 7.25296C91.7106 8.01376 91.4808 8.56529 91.0217 8.90707C90.5618 9.25055 89.8193 9.42143 88.7925 9.42143C88.21 9.42143 87.6056 9.39601 86.9786 9.34589V3.07907H88.0691V5.4727Z" fill="var(--fill-0, #A5ACBD)" stroke="var(--stroke-0, #A5ACBD)" stroke-miterlimit="10"/>
</g>
</svg>
