<svg width="16.667" height="13.333" viewBox="0 0 16.667 13.333" fill="none" xmlns="http://www.w3.org/2000/svg">
<path id="Union" d="M15.7686 0.00488281C16.2727 0.05604 16.6668 0.482348 16.667 1V10.333L16.6631 10.4873C16.5855 12.0213 15.3551 13.251 13.8213 13.3291L13.667 13.333H3C1.34315 13.333 0 11.9899 0 10.333V1C0.000174995 0.447864 0.447823 8.58837e-09 1 0H15.667L15.7686 0.00488281ZM8.83887 9.06934C8.55243 9.3309 8.11358 9.3309 7.82715 9.06934L1.5 3.29102V10.333C1.5 11.1614 2.17157 11.833 3 11.833H13.667C14.4951 11.8327 15.167 11.1612 15.167 10.333V3.29004L8.83887 9.06934ZM8.33301 7.49902L14.9033 1.5H1.7627L8.33301 7.49902Z" fill="var(--fill-0, #788090)"/>
</svg>
