<svg width="15.25" height="15.248" viewBox="0 0 15.25 15.248" fill="none" xmlns="http://www.w3.org/2000/svg">
<path id="Union" d="M0.769531 0.000976562H3.75684C4.06671 0.000976598 4.34531 0.191442 4.45703 0.480469L5.82422 4.02148C5.90936 4.24187 5.88566 4.48768 5.76367 4.68555L5.70508 4.76758L3.05371 7.99805C4.06271 9.73594 5.51199 11.1843 7.25 12.1934L10.4824 9.54492L10.5645 9.48633C10.762 9.36457 11.0075 9.34019 11.2275 9.4248L14.7695 10.792C15.0585 10.9037 15.2489 11.1814 15.249 11.4912V14.4785C15.2492 14.485 15.25 14.4915 15.25 14.498C15.25 14.9123 14.9142 15.248 14.5 15.248H13.0273C5.83396 15.248 0 9.41636 0 2.22266V0.75C0 0.335786 0.335786 0 0.75 0C0.756536 0 0.763035 0.000810337 0.769531 0.000976562ZM8.7334 12.917C10.061 13.4505 11.5091 13.748 13.0273 13.748H13.749V12.0059L11.0947 10.9814L8.7334 12.917ZM1.5 2.22266C1.5 3.74044 1.7967 5.18846 2.33008 6.51562L4.26855 4.1543L3.24316 1.50098H1.5V2.22266Z" fill="var(--fill-0, #788090)"/>
</svg>
