<svg width="14.0002" height="18" viewBox="0 0 14.0002 18" fill="none" xmlns="http://www.w3.org/2000/svg">
<path id="Union" d="M10 1.5H3C2.17157 1.5 1.5 2.17157 1.5 3V15C1.5 15.8284 2.17157 16.5 3 16.5H10V18H3C1.34315 18 0 16.6569 0 15V3C0 1.34315 1.34315 9.66382e-08 3 0H10V1.5ZM13.707 8.29297L13.7764 8.36914C14.0965 8.76191 14.0731 9.34199 13.707 9.70801L10.1709 13.2432L9.1123 12.1836L11.5459 9.75H4V8.25H11.5459L9.1123 5.81641L10.1709 4.75781L13.707 8.29297Z" fill="var(--fill-0, #2C50E6)"/>
</svg>
