<svg width="14" height="18" viewBox="0 0 14 18" fill="none" xmlns="http://www.w3.org/2000/svg">
<path id="Union" d="M13 0C13.5523 0 14 0.447715 14 1V17L13.9951 17.1025C13.9438 17.6067 13.5177 18 13 18H3C2.90246 18 2.80609 17.9945 2.71094 17.9854C2.70703 17.985 2.70312 17.9848 2.69922 17.9844C2.53344 17.9679 2.37254 17.935 2.21582 17.8926C2.18596 17.8845 2.15546 17.8791 2.12598 17.8701C2.06991 17.8531 2.01556 17.8317 1.96094 17.8115C1.92512 17.7983 1.88867 17.787 1.85352 17.7725C1.80656 17.753 1.76153 17.7297 1.71582 17.708C1.67324 17.6878 1.63031 17.6686 1.58887 17.6465C1.55186 17.6267 1.51653 17.6043 1.48047 17.583C1.43507 17.5562 1.38953 17.53 1.3457 17.501C1.30655 17.475 1.26928 17.4467 1.23145 17.4189C1.19347 17.3911 1.15475 17.3645 1.11816 17.335C1.08562 17.3087 1.05484 17.2805 1.02344 17.2529C0.980625 17.2153 0.938062 17.1776 0.897461 17.1377C0.871019 17.1117 0.84578 17.0846 0.820312 17.0576C0.784062 17.0192 0.748072 16.9807 0.713867 16.9404C0.683114 16.9042 0.654035 16.8667 0.625 16.8291C0.594856 16.79 0.565335 16.7505 0.537109 16.71C0.513083 16.6754 0.490363 16.6401 0.467773 16.6045C0.439294 16.5596 0.411864 16.5142 0.385742 16.4678C0.364256 16.4296 0.344058 16.3908 0.324219 16.3516C0.302479 16.3086 0.280445 16.2658 0.260742 16.2217C0.239694 16.1746 0.2208 16.1265 0.202148 16.0781C0.186203 16.0368 0.170393 15.9953 0.15625 15.9531C0.14009 15.9049 0.126045 15.8559 0.112305 15.8066C0.0999714 15.7624 0.0884554 15.7179 0.078125 15.6729C0.0284826 15.4564 0 15.2315 0 15V3C1.9328e-07 1.34315 1.34315 9.66383e-08 3 0H13ZM3 13.5C2.17157 13.5 1.5 14.1716 1.5 15C1.5 15.8284 2.17157 16.5 3 16.5H12.5V13.5H3ZM3 1.5C2.17157 1.5 1.5 2.17157 1.5 3V12.4043C1.94155 12.1486 2.45304 12 3 12H12.5V1.5H7.31348V4.77832C7.31348 4.94661 7.15006 5.0672 6.98926 5.01758L5.31348 4.5L3.63672 5.01758C3.47596 5.06709 3.31348 4.94656 3.31348 4.77832V1.5H3Z" fill="var(--fill-0, #1B1F3B)"/>
</svg>
