<svg width="13.5326" height="13.5334" viewBox="0 0 13.5326 13.5334" fill="none" xmlns="http://www.w3.org/2000/svg">
<path id="Union" d="M4.2793 0.47299C5.82153 -0.13635 7.53455 -0.157384 9.0918 0.412444C10.649 0.98234 11.9429 2.10402 12.7275 3.56479C13.5122 5.02577 13.7326 6.7242 13.3477 8.33725C12.9627 9.95015 11.9993 11.3656 10.6397 12.3148C9.27988 13.2639 7.61847 13.6814 5.97168 13.4867C4.32506 13.2919 2.8069 12.4991 1.70606 11.2591C0.605271 10.019 -0.00183064 8.41733 4.14671e-06 6.75912L0.599614 6.7601H1.19922C1.19768 8.12427 1.69793 9.44202 2.60352 10.4622C3.50905 11.4822 4.75783 12.1339 6.11231 12.2943C7.46689 12.4545 8.83359 12.112 9.95215 11.3314C11.0708 10.5505 11.8639 9.38583 12.1807 8.05893C12.4973 6.7321 12.3162 5.33494 11.6709 4.13315C11.0255 2.93144 9.96064 2.00828 8.67969 1.5394C7.39863 1.07065 5.98941 1.08795 4.72071 1.5892C3.6703 2.00427 2.86837 2.59292 2.03614 3.68881H2.95704L2.95801 4.88803H0.602543C0.271597 4.88777 0.00228755 4.62033 0.00195727 4.2894V1.93393H1.20215V2.80697C2.10786 1.6586 3.04688 0.960026 4.2793 0.47299ZM7.36622 6.26498C7.3663 6.63916 7.517 6.99812 7.78321 7.26108L8.8545 8.31967L8.4336 8.7474L8.01172 9.17416L6.93946 8.11459C6.44508 7.62619 6.16708 6.95992 6.167 6.26498V3.45444H7.36622V6.26498Z" fill="var(--fill-0, #EB9B00)"/>
</svg>
