<svg width="16.667" height="16.667" viewBox="0 0 16.667 16.667" fill="none" xmlns="http://www.w3.org/2000/svg">
<path id="Entity / 24 / Internet" d="M8.33301 0C12.9353 0 16.6668 3.73078 16.667 8.33301L16.6562 8.76172C16.4333 13.165 12.7917 16.667 8.33301 16.667L7.9043 16.6562C3.5013 16.433 0 12.7915 0 8.33301C0.000175744 3.73089 3.73089 0.000175747 8.33301 0ZM5.68555 9.08301C5.77399 10.8857 6.17559 12.4468 6.72949 13.5547C7.40323 14.9021 8.05629 15.1656 8.33301 15.166H8.33398C8.61071 15.1656 9.26472 14.9022 9.93848 13.5547C10.4923 12.4469 10.8922 10.8855 10.9805 9.08301H5.68555ZM1.54199 9.08301C1.81157 11.552 3.3959 13.6257 5.58008 14.5889C4.80125 13.2165 4.28119 11.2713 4.18359 9.08301H1.54199ZM12.4824 9.08301C12.3848 11.2719 11.8631 13.2165 11.084 14.5889C13.2694 13.626 14.8553 11.5528 15.125 9.08301H12.4824ZM11.0859 2.07812C11.8647 3.45025 12.3848 5.39486 12.4824 7.58301H15.125C14.8552 5.11407 13.2704 3.04106 11.0859 2.07812ZM8.33301 1.5C8.05632 1.50041 7.40316 1.76427 6.72949 3.11133C6.17559 4.21913 5.77401 5.78035 5.68555 7.58301H10.9805C10.8922 5.78043 10.4923 4.21912 9.93848 3.11133C9.26474 1.76393 8.6107 1.50041 8.33398 1.5H8.33301ZM5.58301 2.07715C3.39748 3.03961 1.81179 5.11315 1.54199 7.58301H4.18457C4.28227 5.39395 4.80359 3.44934 5.58301 2.07715Z" fill="var(--fill-0, #788090)"/>
</svg>
