<svg width="16.0032" height="17.9953" viewBox="0 0 16.0032 17.9953" fill="none" xmlns="http://www.w3.org/2000/svg">
<path id="Union" d="M16 17.9953H0V16.4953H16V17.9953ZM10.8877 0.631082C11.9085 -0.275931 13.4688 -0.195879 14.3916 0.810769L15.3467 1.85276C16.2863 2.8781 16.2078 4.47355 15.1729 5.40257L4.7666 14.7424L4.69531 14.801C4.54803 14.9106 4.37323 14.9774 4.19043 14.9944L4.09863 14.9983H1C0.447715 14.9983 0 14.5506 0 13.9983V10.76C0.000108027 10.4745 0.122583 10.2026 0.335938 10.0129L10.8877 0.631082ZM1.5 10.9846V13.4983H3.90723L11.5039 6.67991L9.2002 4.13694L1.5 10.9846ZM13.2861 1.82444C12.917 1.42189 12.2921 1.3894 11.8838 1.75218L10.3213 3.14085L12.6201 5.67796L14.1719 4.28636C14.5856 3.9147 14.616 3.27649 14.2402 2.86643L13.2861 1.82444Z" fill="var(--fill-0, #1B1F3B)"/>
</svg>
