<svg width="10.667" height="12" viewBox="0 0 10.667 12" fill="none" xmlns="http://www.w3.org/2000/svg">
<path id="Union" d="M5.33301 6.66699C8.25666 6.66717 10.6669 9.03726 10.667 11.9609L10.666 12H9.46582C9.46596 11.987 9.4668 11.974 9.4668 11.9609C9.4667 9.71149 7.60547 7.86736 5.33301 7.86719C3.06055 7.86736 1.20029 9.71149 1.2002 11.9609C1.2002 11.974 1.20103 11.987 1.20117 12H0.000976562C0.000869866 11.987 8.82923e-07 11.974 0 11.9609C9.45872e-05 9.03726 2.40935 6.66717 5.33301 6.66699ZM5.60547 0.0136719C6.95009 0.150289 7.99902 1.28632 7.99902 2.66699L7.98535 2.93945C7.84871 4.28394 6.71351 5.33284 5.33301 5.33301L5.05957 5.31934C3.80495 5.19154 2.80717 4.19416 2.67969 2.93945L2.66602 2.66699C2.66602 1.19434 3.8604 0.000176043 5.33301 0L5.60547 0.0136719ZM5.33301 1.2002C4.52314 1.20037 3.86621 1.85708 3.86621 2.66699C3.86639 3.47675 4.52325 4.13361 5.33301 4.13379C6.14277 4.13361 6.79963 3.47675 6.7998 2.66699C6.7998 1.85708 6.14288 1.20037 5.33301 1.2002Z" fill="var(--fill-0, #788090)"/>
</svg>
