<svg width="13.333" height="13.333" viewBox="0 0 13.333 13.333" fill="none" xmlns="http://www.w3.org/2000/svg">
<path id="Union" d="M7.00977 0.00878906C10.5321 0.187357 13.3328 3.10031 13.333 6.66699L13.3242 7.00977C13.1456 10.5321 10.2337 13.3328 6.66699 13.333L6.32324 13.3242C2.91475 13.1511 0.18159 10.4183 0.00878906 7.00977L0 6.66699C0.000175913 2.98535 2.98535 0.000175916 6.66699 0L7.00977 0.00878906ZM6.66699 1.2002C3.64809 1.20037 1.20037 3.64809 1.2002 6.66699C1.20037 9.68589 3.64809 12.1336 6.66699 12.1338C9.68589 12.1336 12.1336 9.68589 12.1338 6.66699C12.1336 3.64809 9.68589 1.20037 6.66699 1.2002ZM7.2666 6.16504C7.2666 6.53933 7.41731 6.8981 7.68359 7.16113L8.75488 8.21973L8.33398 8.64746L7.91211 9.07422L6.83984 8.01465C6.34539 7.52618 6.06738 6.86009 6.06738 6.16504V3.35449H7.2666V6.16504Z" fill="var(--fill-0, #788090)"/>
</svg>
