<svg width="11.5872" height="20" viewBox="0 0 11.5872 20" fill="none" xmlns="http://www.w3.org/2000/svg">
<path id="Vector" d="M7.88337 14.5334C8.93542 14.2938 9.9484 13.8772 10.8807 13.2912C11.5864 12.8459 11.7999 11.9137 11.3546 11.2054C10.9093 10.4971 9.97707 10.2835 9.26874 10.7288C7.15423 12.0595 4.43298 12.0569 2.31847 10.7288C1.61019 10.2835 0.677908 10.4971 0.232612 11.2054C-0.212684 11.9111 0.000850084 12.8459 0.706554 13.2912C1.63881 13.8772 2.6518 14.2938 3.70384 14.5334L0.821132 17.4187C0.230034 18.0098 0.230034 18.9655 0.821132 19.5567C1.118 19.8509 1.5034 19.9993 1.8888 19.9993C2.27681 19.9993 2.66221 19.8509 2.9591 19.5567L5.79491 16.7208L8.63074 19.5567C9.22187 20.1478 10.1776 20.1478 10.7687 19.5567C11.3598 18.9655 11.3598 18.0072 10.7687 17.4187L7.88337 14.5334ZM5.79491 3.02594C6.97458 3.02594 7.93288 3.98425 7.93288 5.16389C7.93288 6.34094 6.97458 7.29924 5.79491 7.29924C4.6179 7.29924 3.65697 6.34094 3.65697 5.16389C3.65697 3.98425 4.6179 3.02594 5.79491 3.02594ZM5.79491 10.3226C8.64119 10.3226 10.9562 8.00755 10.9562 5.16387C10.9562 2.31503 8.64119 0 5.79491 0C2.94866 0 0.633665 2.31503 0.633665 5.16129C0.633665 8.00755 2.94866 10.3226 5.79491 10.3226Z" fill="var(--fill-0, #A5ACBD)"/>
</svg>
