<svg width="20" height="20" viewBox="0 0 20 20" fill="none" xmlns="http://www.w3.org/2000/svg">
<path id="Union" d="M10 0C15.5228 0 20 4.47715 20 10C20 15.5228 15.5228 20 10 20C4.47715 20 0 15.5228 0 10C0 4.47715 4.47715 0 10 0ZM10 1.5C5.30558 1.5 1.5 5.30558 1.5 10C1.5 14.6944 5.30558 18.5 10 18.5C14.6944 18.5 18.5 14.6944 18.5 10C18.5 5.30558 14.6944 1.5 10 1.5ZM14 6.00195L14.5312 6.53125L11.0605 10.001L14.5312 13.4717L14 14.001L13.4688 14.5312L9.99902 11.0615L6.53027 14.5312L5.46875 13.4717L8.93848 10.001L5.46875 6.53125L6 6.00195L6.53027 5.47168L9.99902 8.94043L13.4688 5.47168L14 6.00195Z" fill="var(--fill-0, #1B1F3B)"/>
</svg>
