<svg width="18.878" height="20.5037" viewBox="0 0 18.878 20.5037" fill="none" xmlns="http://www.w3.org/2000/svg">
<g id="Icon">
<path d="M18.6908 6.80352C18.5044 5.6035 17.8861 4.52039 16.9649 3.73993C16.9649 3.73993 15.7057 2.84304 14.1432 1.89947C13.1753 1.31679 12.1843 0.792789 11.1581 0.327012C10.6106 0.105676 10.0275 -0.0107679 9.43278 0.000784085C8.83809 -0.0107679 8.25496 0.105676 7.70697 0.327012C6.68082 0.792789 5.68982 1.31725 4.72194 1.89947C3.75406 2.45859 2.80976 3.07592 1.90015 3.73993C1.09597 4.39239 0.291335 5.74351 0.209946 6.80352C0.209946 6.80352 0.0235843 8.37598 0 10.24C0 11.3934 0.0698279 12.5347 0.186362 13.6765C0.372724 14.8765 0.991001 15.9596 1.91218 16.7401C1.91218 16.7401 3.17139 17.6605 4.73396 18.6041C5.70184 19.1863 6.69284 19.7108 7.71899 20.1766C8.26698 20.3979 8.85011 20.5144 9.4448 20.5028C10.0395 20.5144 10.6226 20.4095 11.1706 20.1881C12.1968 19.7223 13.1878 19.1979 14.1556 18.6157C15.7182 17.6952 16.9774 16.7516 16.9774 16.7516C17.7821 16.0992 18.5862 14.7481 18.7032 13.688C18.8082 12.5347 18.878 11.3934 18.878 10.24C18.878 9.08666 18.8082 7.94532 18.6917 6.80352H18.6908ZM17.5596 13.2338C17.4662 14.1543 16.755 15.3307 16.0438 15.9014C16.0438 15.9014 14.9362 16.7285 13.56 17.5321C12.7087 18.0445 11.8342 18.4988 10.9366 18.9068C10.4585 19.1045 9.93406 19.1979 9.42076 19.1863C8.89589 19.1979 8.38305 19.1045 7.90489 18.9068C7.0073 18.4992 6.13283 18.033 5.28149 17.5321C3.90574 16.705 2.79774 15.9014 2.79774 15.9014C1.98154 15.2258 1.44511 14.2823 1.28187 13.2338C1.1769 12.232 1.11863 11.2302 1.11863 10.2285C1.14176 8.60933 1.305 7.23464 1.305 7.23464C1.37482 6.31418 2.08605 5.13772 2.79728 4.56706C3.60192 3.98437 4.42968 3.44882 5.28103 2.94793C6.13237 2.43548 7.00684 1.98126 7.90443 1.57324C8.38259 1.38702 8.89543 1.28213 9.4203 1.29368C9.94516 1.28213 10.458 1.37501 10.9362 1.57324C11.8338 1.9808 12.7087 2.44703 13.5596 2.94793C14.9353 3.77505 16.0433 4.5555 16.0433 4.5555C16.8595 5.23106 17.3959 6.17463 17.5592 7.22309C17.6642 8.22488 17.7224 9.22667 17.7224 10.2285C17.7224 11.2302 17.6642 12.232 17.5592 13.2338H17.5596Z" fill="var(--fill-0, black)"/>
<path d="M15.5369 9.79503L14.2241 8.67679V5.56053C14.2241 5.23846 13.9628 4.97692 13.64 4.97692C13.3172 4.97692 13.056 5.238 13.056 5.56053V7.68193L9.8573 4.95705C9.63903 4.77129 9.3181 4.77083 9.09983 4.95705L3.41694 9.79503C3.17139 10.0039 3.14179 10.3722 3.35128 10.6175C3.5603 10.8629 3.92886 10.8925 4.17441 10.6831L9.47856 6.1677L13.056 9.21511V13.7453C13.056 14.0466 12.8113 14.2911 12.5098 14.2911H6.45423C6.15272 14.2911 5.90809 14.0466 5.90809 13.7453V11.16C5.90809 10.8379 5.64681 10.5764 5.32403 10.5764C5.00125 10.5764 4.73997 10.8375 4.73997 11.16V13.7453C4.73997 14.6912 5.50762 15.4583 6.45423 15.4583H12.5098C13.4564 15.4583 14.2241 14.6912 14.2241 13.7453V10.21L14.7795 10.6831C15.025 10.8925 15.3936 10.8629 15.6026 10.6175C15.8116 10.3722 15.7825 10.0039 15.5369 9.79503Z" fill="var(--fill-0, black)"/>
</g>
</svg>
