<svg width="20" height="18" viewBox="0 0 20 18" fill="none" xmlns="http://www.w3.org/2000/svg">
<path id="Union" d="M14.2041 0.0107422C15.2128 0.113005 16 0.964349 16 2V4H17C18.6569 4 20 5.34315 20 7V13C20 14.6051 18.7394 15.9158 17.1543 15.9961L17 16H16C16 17.0357 15.2128 17.887 14.2041 17.9893L14 18H6C4.89543 18 4 17.1046 4 16H3L2.8457 15.9961C1.26055 15.9158 0 14.6051 0 13V7C0 5.34315 1.34315 4 3 4H4V2C4 0.895431 4.89543 3.22128e-08 6 0H14L14.2041 0.0107422ZM5.5 10.5V16C5.5 16.2761 5.72386 16.5 6 16.5H14C14.2761 16.5 14.5 16.2761 14.5 16V10.5H5.5ZM3 5.5C2.17157 5.5 1.5 6.17157 1.5 7V13C1.5 13.8284 2.17157 14.5 3 14.5H4V10L4.00488 9.89746C4.05278 9.42703 4.42703 9.05278 4.89746 9.00488L5 9H15L15.1025 9.00488C15.6067 9.05621 16 9.48232 16 10V14.5H17C17.8284 14.5 18.5 13.8284 18.5 13V7C18.5 6.17157 17.8284 5.5 17 5.5H3ZM6 1.5C5.72386 1.5 5.5 1.72386 5.5 2V4H14.5V2C14.5 1.72386 14.2761 1.5 14 1.5H6Z" fill="var(--fill-0, #1B1F3B)"/>
</svg>
