<svg width="18.7499" height="18.7499" viewBox="0 0 18.7499 18.7499" fill="none" xmlns="http://www.w3.org/2000/svg">
<path id="Union" d="M8 0C12.4183 0 16 3.58172 16 8C16 9.93904 15.3088 11.7158 14.1611 13.1006L18.5303 17.4697C18.8232 17.7626 18.8232 18.2374 18.5303 18.5303C18.2374 18.8232 17.7626 18.8232 17.4697 18.5303L13.1006 14.1611C11.7158 15.3088 9.93904 16 8 16C3.58172 16 0 12.4183 0 8C0 3.58172 3.58172 0 8 0ZM8 1.5C4.41015 1.5 1.5 4.41015 1.5 8C1.5 11.5899 4.41015 14.5 8 14.5C11.5899 14.5 14.5 11.5899 14.5 8C14.5 4.41015 11.5899 1.5 8 1.5Z" fill="var(--fill-0, #2C50E6)"/>
</svg>
